<?xml version="1.0" encoding="UTF-8"?>
<svg version="1.1" xmlns="http://www.w3.org/2000/svg" width="398" height="627">
<path d="M0 0 C7.23722727 4.0779846 12.99690887 9.5086781 18.8125 15.375 C20.06063477 16.59316406 20.06063477 16.59316406 21.33398438 17.8359375 C28.02419972 24.53151789 33.04420652 31.24860708 33.3125 41.0625 C33.16784609 52.04173147 27.84705503 60.24949894 20.19628906 67.77392578 C16.16157055 71.64287379 12.06184183 75.43855171 7.92529297 79.19824219 C5.56102088 81.41081232 3.28568403 83.7069601 1 86 C-0.48807604 87.49046491 -1.9762344 88.98084762 -3.46444702 90.47117615 C-4.80013074 91.80909549 -6.13581402 93.14701528 -7.47148705 94.4849453 C-18.09068367 105.12191923 -28.71282833 115.75594539 -39.33656883 126.388381 C-45.47248451 132.52945495 -51.607454 138.67146868 -57.74023438 144.81567383 C-63.10305122 150.18847567 -68.46763953 155.55950142 -73.83433783 160.92842633 C-76.67003074 163.7654185 -79.50484818 166.6032728 -82.33753586 169.44326591 C-85.00296748 172.1155175 -87.67077229 174.78537715 -90.34036446 177.45347214 C-91.77795684 178.89146775 -93.21306871 180.33194188 -94.64808655 181.77250671 C-98.8097383 185.9275756 -102.96862719 189.98589824 -107.5299015 193.70269871 C-109.196477 195.17338285 -110.60124288 196.76837804 -112.03515625 198.46484375 C-117.17806103 204.5000461 -122.86659781 210.01527939 -128.47875977 215.60913086 C-130.43295624 217.5579687 -132.38175147 219.51209272 -134.33007812 221.46679688 C-145.61908464 232.76129792 -145.61908464 232.76129792 -151.51782227 237.73828125 C-153.45448629 239.38688604 -155.23946475 241.16610912 -157 243 C-155.69020362 245.83685756 -154.24361127 248.08843357 -152.1875 250.4375 C-151.70667969 250.99308594 -151.22585937 251.54867187 -150.73046875 252.12109375 C-148.55400644 254.48425035 -146.28017711 256.73686457 -144 259 C-143.175 259.83660156 -142.35 260.67320312 -141.5 261.53515625 C-140.675 262.36917969 -139.85 263.20320313 -139 264.0625 C-138.175 264.89910156 -137.35 265.73570312 -136.5 266.59765625 C-134.05249714 269.02480716 -134.05249714 269.02480716 -131.39453125 271.0703125 C-129.17718646 272.85721026 -127.48742405 274.61954042 -125.6875 276.8125 C-123.28454783 279.63245037 -120.82914039 282.10863762 -118 284.5 C-115.4467415 286.66052413 -113.2000813 288.83493437 -111.06350708 291.40509033 C-105.70925458 297.60130757 -99.80514329 303.2671172 -93.98388672 309.01855469 C-92.67051317 310.32016896 -91.35742062 311.62206682 -90.04458618 312.92422485 C-87.22968089 315.71573612 -84.41348234 318.50593391 -81.59646225 321.29531097 C-77.13650271 325.71290156 -72.68373547 330.13769346 -68.23269653 334.56427002 C-67.47942546 335.31335278 -66.72615438 336.06243555 -65.95005691 336.83421779 C-64.4104977 338.36527434 -62.87096215 339.89635467 -61.33144975 341.42745829 C-50.97906036 351.72304329 -40.62274476 362.01453002 -30.24365234 372.28320312 C-23.22803016 379.22429374 -16.22499623 386.17781519 -9.23616612 393.14588475 C-5.54359984 396.82650507 -1.84501568 400.50057581 1.86905289 404.15950775 C5.36286819 407.60166671 8.83975771 411.0600693 12.30472183 414.53126144 C13.57362745 415.79666524 14.84848311 417.05613711 16.12987518 418.30889511 C24.3485095 426.35227056 30.86112765 433.74317549 32.5 445.625 C32.335 446.73875 32.17 447.8525 32 449 C31.85111328 450.06541016 31.85111328 450.06541016 31.69921875 451.15234375 C28.60950938 465.70463902 13.51056272 479.30365025 1.5 487.125 C-5.5881352 490.92221529 -13.91159437 491.38304048 -21.6875 489.26953125 C-29.22806225 485.92219833 -34.46163923 479.92119677 -40 474 C-41.66149875 472.32818139 -43.32808403 470.66140078 -45 469 C-45.81339844 468.175 -46.62679687 467.35 -47.46484375 466.5 C-52.62295404 461.21538635 -52.62295404 461.21538635 -58.1875 456.375 C-60.45023219 454.46424837 -62.1568065 452.7258654 -64.046875 450.48828125 C-68.4862535 445.3622091 -73.25871439 440.5948879 -78.0625 435.8125 C-78.93455078 434.93658203 -79.80660156 434.06066406 -80.70507812 433.15820312 C-85.88900086 427.9635792 -85.88900086 427.9635792 -91.40625 423.1328125 C-93.7185209 421.23145721 -95.54683744 419.36807106 -97.4375 417.0625 C-100.15575064 413.86631518 -103.00676529 411.22538992 -106.2421875 408.5703125 C-108.88200777 406.21207306 -111.08242484 403.51346652 -113.37109375 400.8203125 C-115.37595914 398.57986341 -117.60651155 396.81128856 -120 395 C-122.3125 392.875 -122.3125 392.875 -124 391 C-124 390.34 -124 389.68 -124 389 C-124.57878906 388.75894531 -125.15757812 388.51789063 -125.75390625 388.26953125 C-128.42659668 386.75888014 -129.95394554 385.02455921 -131.9375 382.6875 C-134.82937803 379.30118556 -137.84045904 376.13820635 -141 373 C-148 366 -155 359 -162 352 C-162.78656982 351.21415527 -163.57313965 350.42831055 -164.38354492 349.61865234 C-166.90438825 347.09569205 -169.42043237 344.56804843 -171.93525696 342.03909302 C-174.54000831 339.4208424 -177.14751694 336.80534463 -179.75512695 334.18994141 C-181.12224324 332.81779597 -182.48846071 331.4447544 -183.85375977 330.07080078 C-185.84409851 328.06821306 -187.83775553 326.06897873 -189.83203125 324.0703125 C-190.43126907 323.46591339 -191.0305069 322.86151428 -191.64790344 322.23880005 C-194.67613815 319.21017361 -197.75982985 316.3017329 -201 313.5 C-204.89231861 310.13436283 -208.5462541 306.58259628 -212.16796875 302.9296875 C-212.81067215 302.28556915 -213.45337555 301.64145081 -214.11555481 300.97781372 C-216.14192915 298.94590995 -218.16478049 296.91054143 -220.1875 294.875 C-221.55380162 293.50367223 -222.9203363 292.13257663 -224.28710938 290.76171875 C-226.79465569 288.24605987 -229.30086053 285.72908176 -231.80541992 283.21044922 C-237.54474273 277.42364624 -237.54474273 277.42364624 -243.41015625 271.765625 C-244.62780069 270.5939542 -245.84524524 269.42207563 -247.0625 268.25 C-247.97999023 267.39535156 -247.97999023 267.39535156 -248.91601562 266.5234375 C-254.92767411 260.67425627 -258.50546521 253.77300015 -259.09375 245.31640625 C-258.58358302 232.71103036 -250.07646715 223.58530111 -241.5 215.25 C-240.76652344 214.52167969 -240.03304687 213.79335938 -239.27734375 213.04296875 C-236.17336178 209.9834087 -233.06606649 206.99024181 -229.6875 204.234375 C-227.32931543 202.27379131 -225.44020538 200.35868105 -223.5 198 C-220.59796587 194.58771812 -217.45061774 191.86327855 -214 189 C-212.9793101 187.85139074 -211.97994108 186.6835652 -211 185.5 C-209.096311 183.20073926 -207.39316903 181.49645941 -205.0625 179.5625 C-202.62872457 177.52607566 -200.77964813 175.67894877 -198.74850178 173.28894997 C-195.3004944 169.30356734 -191.68726954 165.53898124 -187.96147156 161.81430054 C-187.2887601 161.13791239 -186.61604865 160.46152425 -185.922952 159.7646395 C-183.69015781 157.52091806 -181.45387889 155.28070464 -179.2175293 153.04052734 C-177.60694402 151.42366947 -175.99654655 149.8066245 -174.38632202 148.18940735 C-169.11919705 142.9013463 -163.84682997 137.61852738 -158.57421875 132.3359375 C-156.75451717 130.51218541 -154.93484888 128.6884001 -153.11521339 126.86458206 C-145.54651462 119.27903493 -137.97671186 111.69459436 -130.40321636 104.11383629 C-128.44401291 102.15272335 -126.48481493 100.19160495 -124.52563477 98.23046875 C-124.03876494 97.74311519 -123.55189512 97.25576162 -123.05027167 96.75363977 C-115.15819257 88.85325467 -107.27467637 80.94438227 -99.39468708 73.03194039 C-91.28617879 64.89031327 -83.16995339 56.75645308 -75.0466302 48.62960589 C-70.49304878 44.07367677 -65.94281641 39.51451857 -61.40067101 34.94718552 C-57.12895279 30.6521593 -52.84777729 26.36678919 -48.55926132 22.08853722 C-46.99092749 20.52069806 -45.4259861 18.94945656 -43.86478996 17.37450981 C-18.55784202 -8.14274584 -18.55784202 -8.14274584 0 0 Z " fill="#F8F8FA" transform="translate(312,64)"/>
<path d="M0 0 C0.66 0 1.32 0 2 0 C3.59608186 5.92230375 1.71707552 9.70170274 -1 15 C-6.22531094 23.75723408 -14.60386403 30.40802692 -22.07470703 37.19824219 C-24.43897912 39.41081232 -26.71431597 41.7069601 -29 44 C-30.48807604 45.49046491 -31.9762344 46.98084762 -33.46444702 48.47117615 C-34.80013074 49.80909549 -36.13581402 51.14701528 -37.47148705 52.4849453 C-48.09068367 63.12191923 -58.71282833 73.75594539 -69.33656883 84.388381 C-75.47248451 90.52945495 -81.607454 96.67146868 -87.74023438 102.81567383 C-93.10305122 108.18847567 -98.46763953 113.55950142 -103.83433783 118.92842633 C-106.67003074 121.7654185 -109.50484818 124.6032728 -112.33753586 127.44326591 C-115.00296748 130.1155175 -117.67077229 132.78537715 -120.34036446 135.45347214 C-121.77795684 136.89146775 -123.21306871 138.33194188 -124.64808655 139.77250671 C-128.8097383 143.9275756 -132.96862719 147.98589824 -137.5299015 151.70269871 C-139.196477 153.17338285 -140.60124288 154.76837804 -142.03515625 156.46484375 C-147.17806103 162.5000461 -152.86659781 168.01527939 -158.47875977 173.60913086 C-160.43295624 175.5579687 -162.38175147 177.51209272 -164.33007812 179.46679688 C-175.61908464 190.76129792 -175.61908464 190.76129792 -181.51782227 195.73828125 C-183.45448629 197.38688604 -185.23946475 199.16610912 -187 201 C-186.690625 201.598125 -186.38125 202.19625 -186.0625 202.8125 C-185 205 -185 205 -184 208 C-184.66 208 -185.32 208 -186 208 C-187.38232443 206.37373596 -188.71937515 204.7074998 -190 203 C-187.21789044 196.74025348 -182.02319334 191.46238948 -176.6875 187.25 C-173.97079807 184.97555187 -172.77580841 183.01115338 -171 180 C-166.56756757 176 -166.56756757 176 -164 176 C-164 175.34 -164 174.68 -164 174 C-163.34 174 -162.68 174 -162 174 C-161.731875 173.4225 -161.46375 172.845 -161.1875 172.25 C-159.9611378 169.92636635 -158.75156566 167.96175354 -157 166 C-156.01 166 -155.02 166 -154 166 C-154 165.34 -154 164.68 -154 164 C-153.34 164 -152.68 164 -152 164 C-152 163.34 -152 162.68 -152 162 C-151.34 162 -150.68 162 -150 162 C-149.814375 161.278125 -149.62875 160.55625 -149.4375 159.8125 C-147.70698645 156.42671263 -145.85600499 155.30872677 -142.74609375 153.265625 C-140.35567149 151.53296994 -138.76091868 149.34789157 -137 147 C-136.34 146.67 -135.68 146.34 -135 146 C-134.67 145.01 -134.34 144.02 -134 143 C-132.33333333 142.33333333 -130.66666667 141.66666667 -129 141 C-128.67 140.01 -128.34 139.02 -128 138 C-127.34 138 -126.68 138 -126 138 C-126 137.01 -126 136.02 -126 135 C-123.83984375 133.01953125 -123.83984375 133.01953125 -120.9375 130.8125 C-116.51860621 127.33888504 -112.83883854 123.82230848 -109.33984375 119.43359375 C-108.89769531 118.96050781 -108.45554687 118.48742187 -108 118 C-107.34 118 -106.68 118 -106 118 C-106 117.34 -106 116.68 -106 116 C-105.34 116 -104.68 116 -104 116 C-104 115.34 -104 114.68 -104 114 C-103.34 114 -102.68 114 -102 114 C-102 113.01 -102 112.02 -102 111 C-101.38125 110.731875 -100.7625 110.46375 -100.125 110.1875 C-97.7004767 109.04443152 -97.7004767 109.04443152 -96 106 C-95.34 106 -94.68 106 -94 106 C-94 105.34 -94 104.68 -94 104 C-89.69767442 99.23255814 -89.69767442 99.23255814 -86 98 C-85.26676204 95.98491642 -85.26676204 95.98491642 -85 94 C-84.01 94 -83.02 94 -82 94 C-82 93.34 -82 92.68 -82 92 C-81.34 92 -80.68 92 -80 92 C-80 91.34 -80 90.68 -80 90 C-79.34 90 -78.68 90 -78 90 C-77.01 88.02 -77.01 88.02 -76 86 C-75.34 86 -74.68 86 -74 86 C-73.01 84.02 -73.01 84.02 -72 82 C-71.34 82 -70.68 82 -70 82 C-70 81.34 -70 80.68 -70 80 C-69.34 80 -68.68 80 -68 80 C-67.773125 79.46375 -67.54625 78.9275 -67.3125 78.375 C-64.91456707 74.03588327 -62.24872722 70.81438732 -58.125 68.125 C-54.62246539 65.74327646 -52.3471539 63.08448725 -49.7109375 59.8046875 C-48 58 -48 58 -45.9140625 57.0078125 C-43.47290893 55.72247042 -43.15349602 54.4552325 -42 52 C-40.30859375 50.3671875 -40.30859375 50.3671875 -38.4375 48.875 C-35.78974334 46.79096366 -35.78974334 46.79096366 -34 44 C-33.34 44 -32.68 44 -32 44 C-32 43.34 -32 42.68 -32 42 C-31.34 42 -30.68 42 -30 42 C-29.67 41.01 -29.34 40.02 -29 39 C-28.34 39 -27.68 39 -27 39 C-26.6596875 38.13375 -26.6596875 38.13375 -26.3125 37.25 C-24.65273655 34.40469122 -22.57933333 33.06346666 -20 31 C-18.16593771 28.94020697 -16.39721428 26.83958936 -14.6484375 24.70703125 C-13 23 -13 23 -10 22 C-8.78130071 19.49552484 -8.78130071 19.49552484 -8 17 C-7.01 17 -6.02 17 -5 17 C-4.71125 16.113125 -4.4225 15.22625 -4.125 14.3125 C-3.45927076 12.35229724 -2.74722634 10.40523845 -1.9375 8.5 C-0.88163567 5.68436179 -0.41469996 2.9720164 0 0 Z " fill="#CFCFD3" transform="translate(342,106)"/>
<path d="M0 0 C0.99 0.33 1.98 0.66 3 1 C-1.798521 5.84908002 -6.60474712 10.69042099 -11.41650391 15.52636719 C-13.05372291 17.17366638 -14.68914545 18.82275301 -16.32275391 20.47363281 C-18.66623553 22.84127404 -21.0160257 25.20248847 -23.3671875 27.5625 C-24.10057343 28.3062085 -24.83395935 29.04991699 -25.58956909 29.81616211 C-26.2701236 30.49686768 -26.9506781 31.17757324 -27.65185547 31.87890625 C-28.25142059 32.4829126 -28.85098572 33.08691895 -29.46871948 33.70922852 C-31 35 -31 35 -33 35 C-33.24387451 35.56984619 -33.48774902 36.13969238 -33.73901367 36.72680664 C-35.2288452 39.41254166 -36.98905176 41.21475173 -39.17578125 43.37109375 C-40.00400391 44.19287109 -40.83222656 45.01464844 -41.68554688 45.86132812 C-42.55244141 46.71146484 -43.41933594 47.56160156 -44.3125 48.4375 C-45.16779297 49.28376953 -46.02308594 50.13003906 -46.90429688 51.00195312 C-48.55780762 52.63753269 -50.21349657 54.27091375 -51.87158203 55.90185547 C-53.44916787 57.4570026 -55.01492662 59.02416722 -56.57421875 60.59765625 C-60.88157508 64.86339561 -65.33633206 68.97459754 -69.76171875 73.1171875 C-70.49003906 73.80039063 -71.21835938 74.48359375 -71.96875 75.1875 C-72.95004883 76.10595703 -72.95004883 76.10595703 -73.95117188 77.04296875 C-76.33971767 79.32449676 -78.66952452 81.65920491 -81 84 C-82.83033145 85.81941061 -84.6610848 87.63839685 -86.4921875 89.45703125 C-88.07738211 91.0348401 -89.66208966 92.61313633 -91.24658203 94.19165039 C-92.32771017 95.26775379 -93.40973467 96.34295744 -94.49267578 97.41723633 C-96.07830087 98.9905604 -97.6611398 100.56660791 -99.2421875 102.14453125 C-99.74933289 102.65009552 -100.25647827 103.15565979 -100.7789917 103.67654419 C-104.2655693 107.18238742 -107.5160842 110.8168277 -110.60205078 114.6784668 C-112 116 -112 116 -115 116 C-107.91941937 108.16913267 -100.68576217 100.54340526 -93.2043457 93.09082031 C-92.17789036 92.06464811 -91.15165727 91.03825354 -90.12562561 90.01165771 C-87.38066331 87.2664124 -84.63266311 84.52422753 -81.88404107 81.78264713 C-78.99681658 78.90173991 -76.11248706 76.01793701 -73.22782898 73.13446045 C-67.78323089 67.69295126 -62.33609237 62.25399273 -56.88800067 56.81598163 C-50.67788084 50.61709939 -44.47065298 44.41532466 -38.26364768 38.21332407 C-25.51227832 25.47236375 -12.75734251 12.73497935 0 0 Z " fill="#EEEFF1" transform="translate(223,127)"/>
<path d="M0 0 C0.66 0 1.32 0 2 0 C3.59608186 5.92230375 1.71707552 9.70170274 -1 15 C-5.83409799 23.10159015 -13.37183724 29.235834 -20.2578125 35.546875 C-23.97371777 38.95296644 -27.5443811 42.45340492 -31 46.125 C-33.19532064 48.1831131 -35.30893857 49.65446929 -38 51 C-38.66 50.67 -39.32 50.34 -40 50 C-38.7934375 49.071875 -38.7934375 49.071875 -37.5625 48.125 C-34.96125481 46.25835959 -34.96125481 46.25835959 -34 44 C-33.34 44 -32.68 44 -32 44 C-32 43.34 -32 42.68 -32 42 C-31.34 42 -30.68 42 -30 42 C-29.67 41.01 -29.34 40.02 -29 39 C-28.34 39 -27.68 39 -27 39 C-26.773125 38.4225 -26.54625 37.845 -26.3125 37.25 C-24.65273655 34.40469122 -22.57933333 33.06346666 -20 31 C-18.16593771 28.94020697 -16.39721428 26.83958936 -14.6484375 24.70703125 C-13 23 -13 23 -10 22 C-8.78130071 19.49552484 -8.78130071 19.49552484 -8 17 C-7.01 17 -6.02 17 -5 17 C-4.71125 16.113125 -4.4225 15.22625 -4.125 14.3125 C-3.45927076 12.35229724 -2.74722634 10.40523845 -1.9375 8.5 C-0.88163567 5.68436179 -0.41469996 2.9720164 0 0 Z " fill="#D0D1D4" transform="translate(342,106)"/>
<path d="M0 0 C0.66 0.33 1.32 0.66 2 1 C0.64564617 4.12646853 -0.77501302 5.89291353 -3.4375 8 C-5.52372461 9.70339164 -7.03809851 11.05275178 -8.625 13.25 C-10.43049106 15.54789772 -12.2981039 15.98678896 -15 17 C-16.77277259 18.52007842 -16.77277259 18.52007842 -18 20 C-16.79642705 15.31943854 -14.58164998 13.78544988 -10.74609375 11.265625 C-8.35567149 9.53296994 -6.76091868 7.34789157 -5 5 C-4.34 4.67 -3.68 4.34 -3 4 C-2.67 3.01 -2.34 2.02 -2 1 C-1.34 0.67 -0.68 0.34 0 0 Z " fill="#DBDBE0" transform="translate(210,248)"/>
<path d="M0 0 C0.66 0 1.32 0 2 0 C3.12835055 4.03602313 2.87217321 6.28115478 1.25 10.125 C0.73179687 11.39730469 0.73179687 11.39730469 0.203125 12.6953125 C-0.96592118 14.93471914 -2.11561434 16.3430402 -4 18 C-5 15 -5 15 -4.2578125 12.94921875 C-3.88398438 12.20285156 -3.51015625 11.45648438 -3.125 10.6875 C-1.43004069 7.11055138 -0.40769673 3.97504311 0 0 Z " fill="#D8D6DB" transform="translate(342,106)"/>
<path d="M0 0 C0.66 0.33 1.32 0.66 2 1 C0.87050952 4.38847145 -0.12283218 5.19694184 -2.8125 7.4375 C-5.66759505 9.85689832 -8.4052662 12.2971523 -11 15 C-10.690625 15.598125 -10.38125 16.19625 -10.0625 16.8125 C-9 19 -9 19 -8 22 C-8.66 22 -9.32 22 -10 22 C-11.38232443 20.37373596 -12.71937515 18.7074998 -14 17 C-12.51774343 13.63818097 -10.58803588 11.2139867 -8.125 8.5 C-7.44695312 7.7471875 -6.76890625 6.994375 -6.0703125 6.21875 C-4.09095352 4.09747471 -2.06523274 2.03744934 0 0 Z " fill="#D7D8DA" transform="translate(166,292)"/>
<path d="M0 0 C3.12270026 1.41115314 5.49653681 3.110624 8.0625 5.375 C8.73410156 5.96023438 9.40570313 6.54546875 10.09765625 7.1484375 C11.98992125 8.99019029 13.54512063 10.79728544 15 13 C15 13.66 15 14.32 15 15 C11.64955966 13.88318655 10.85083657 12.9563104 8.625 10.3125 C8.01785156 9.59707031 7.41070312 8.88164062 6.78515625 8.14453125 C6.19605469 7.43683594 5.60695313 6.72914063 5 6 C4.22462891 5.07767578 4.22462891 5.07767578 3.43359375 4.13671875 C2.2828273 2.76301179 1.14041072 1.38231603 0 0 Z " fill="#E4E4E6" transform="translate(62,328)"/>
<path d="M0 0 C5.01202555 2.98334854 8.38748484 6.43951988 12 11 C11.01 11 10.02 11 9 11 C7.72906867 9.53354077 6.46357667 8.06009874 5.2734375 6.52734375 C3.73540646 4.68265008 1.92166548 3.42345591 0 2 C0 1.34 0 0.68 0 0 Z " fill="#EFEFF0" transform="translate(188,344)"/>
<path d="M0 0 C0.99 0.33 1.98 0.66 3 1 C1.92643323 2.15498897 0.84070212 3.29867867 -0.25 4.4375 C-0.85328125 5.07558594 -1.4565625 5.71367187 -2.078125 6.37109375 C-4.10048016 8.08516306 -5.41270605 8.59358878 -8 9 C-8 8.34 -8 7.68 -8 7 C-7.34 7 -6.68 7 -6 7 C-6 6.34 -6 5.68 -6 5 C-5.01 4.67 -4.02 4.34 -3 4 C-1.31461399 2.00334686 -1.31461399 2.00334686 0 0 Z " fill="#C7C8D0" transform="translate(196,263)"/>
<path d="M0 0 C0.66 0 1.32 0 2 0 C2.84454356 3.37817425 3.10844919 5.67465243 2 9 C1.01 9 0.02 9 -1 9 C-0.67 6.03 -0.34 3.06 0 0 Z " fill="#E6E7E9" transform="translate(342,106)"/>
<path d="M0 0 C0.66 0.33 1.32 0.66 2 1 C-0.97 3.97 -3.94 6.94 -7 10 C-7.66 9.67 -8.32 9.34 -9 9 C-8.06725891 7.87105124 -7.12859878 6.74699124 -6.1875 5.625 C-5.66542969 4.99851563 -5.14335937 4.37203125 -4.60546875 3.7265625 C-3 2 -3 2 0 0 Z " fill="#C5C5C8" transform="translate(325,135)"/>
<path d="M0 0 C0 3 0 3 -2 6 C-2.68177416 7.32567199 -3.35191436 8.65753688 -4 10 C-4.33 9.34 -4.66 8.68 -5 8 C-5.66 7.67 -6.32 7.34 -7 7 C-6.01 6.67 -5.02 6.34 -4 6 C-2.90833725 4.06669397 -2.90833725 4.06669397 -2 2 C-1.34 1.34 -0.68 0.68 0 0 Z " fill="#D9DADE" transform="translate(319,139)"/>
<path d="M0 0 C0.66 0.33 1.32 0.66 2 1 C-0.64 3.64 -3.28 6.28 -6 9 C-6.33 7.68 -6.66 6.36 -7 5 C-6.030625 4.360625 -5.06125 3.72125 -4.0625 3.0625 C-1.23963731 1.3034741 -1.23963731 1.3034741 0 0 Z " fill="#C7C8CC" transform="translate(255,205)"/>
<path d="M0 0 C0.99 0.33 1.98 0.66 3 1 C0.69 3.31 -1.62 5.62 -4 8 C-4.66 7.67 -5.32 7.34 -6 7 C-4.6875 4.5 -4.6875 4.5 -3 2 C-2.01 2 -1.02 2 0 2 C0 1.34 0 0.68 0 0 Z " fill="#C5C6C8" transform="translate(217,242)"/>
<path d="M0 0 C0.99 0.33 1.98 0.66 3 1 C0.69 3.31 -1.62 5.62 -4 8 C-4.66 7.67 -5.32 7.34 -6 7 C-4.02 4.69 -2.04 2.38 0 0 Z " fill="#F2F2F4" transform="translate(114,236)"/>
<path d="M0 0 C0.99 0 1.98 0 3 0 C1.60667426 3.36720387 0.0210714 4.9859524 -3 7 C-1.125 1.125 -1.125 1.125 0 0 Z " fill="#CACBCC" transform="translate(170,288)"/>
<path d="M0 0 C0.66 0.33 1.32 0.66 2 1 C0.95125002 3.62187494 0.35068687 4.79371361 -2.125 6.25 C-2.74375 6.4975 -3.3625 6.745 -4 7 C-3.39816251 4.97954558 -2.72693904 2.97888961 -2 1 C-1.34 0.67 -0.68 0.34 0 0 Z " fill="#D4D4D7" transform="translate(210,248)"/>
</svg>
