<svg width="24" height="17" viewBox="0 0 24 17" fill="none" xmlns="http://www.w3.org/2000/svg">
<path d="M16.4769 8.528C18.528 8.528 20.1994 6.701 20.1994 4.478C20.1994 2.28029 18.5366 0.539429 16.4769 0.539429C14.4343 0.539429 12.7539 2.306 12.7539 4.49514C12.7624 6.70957 14.4343 8.528 16.4769 8.528ZM6.54943 8.71743C8.32457 8.71743 9.78086 7.12314 9.78086 5.16714C9.78086 3.254 8.34171 1.71157 6.54943 1.71157C4.77429 1.71157 3.30943 3.28014 3.318 5.18429C3.32657 7.13214 4.77429 8.71743 6.54943 8.71743ZM16.4769 7.22686C15.2186 7.22686 14.1411 6.02043 14.1411 4.49514C14.1411 2.99514 15.2014 1.841 16.4769 1.841C17.7609 1.841 18.8121 2.97843 18.8121 4.47757C18.8121 6.00329 17.7523 7.22686 16.4769 7.22686ZM6.54943 7.43343C5.49814 7.43343 4.602 6.42543 4.602 5.18429C4.602 3.96929 5.48914 2.99557 6.54943 2.99557C7.635 2.99557 8.50543 3.95214 8.50543 5.16714C8.50543 6.42543 7.60929 7.43343 6.54943 7.43343ZM1.758 16.6199H8.523C8.109 16.3871 7.79014 15.8699 7.85057 15.3444H1.54286C1.37057 15.3444 1.28443 15.2759 1.28443 15.1117C1.28443 12.9749 3.723 10.9756 6.54129 10.9756C7.62686 10.9756 8.60057 11.234 9.43671 11.7251C9.7139 11.3738 10.0421 11.066 10.4104 10.8119C9.29871 10.079 7.96329 9.70014 6.54129 9.70014C2.93014 9.70014 0 12.3196 0 15.1893C0 16.1459 0.585857 16.6199 1.758 16.6199ZM11.0649 16.6199H21.8889C23.319 16.6199 24 16.1891 24 15.2411C24 12.9834 21.1474 9.71686 16.4769 9.71686C11.7973 9.71686 8.94514 12.9834 8.94514 15.2411C8.94514 16.1891 9.62571 16.6199 11.0649 16.6199ZM10.6513 15.3187C10.4271 15.3187 10.3324 15.2587 10.3324 15.0774C10.3324 13.664 12.5211 11.0189 16.4769 11.0189C20.424 11.0189 22.6123 13.664 22.6123 15.0774C22.6123 15.2583 22.5266 15.3187 22.302 15.3187H10.6513Z" fill="#321B48"/>
</svg>
