<svg width="336" height="168" viewBox="0 0 336 168" fill="none" xmlns="http://www.w3.org/2000/svg">
<rect width="335" height="168" rx="8" fill="url(#paint0_linear_785_2602)"/>
<g style="mix-blend-mode:soft-light" opacity="0.2">
<path opacity="0.0526316" d="M309.167 134.391C302.094 139.123 279.488 147.042 245.648 140.86C203.348 133.131 186.988 112.645 149.235 102.023C121.37 94.1827 46.4957 82.4143 3.44194 95.4185" stroke="white" stroke-width="3"/>
<path opacity="0.105263" d="M316.143 124.47C310.092 129.548 289.256 138.612 254.316 134.242C210.641 128.78 190.113 109.266 150.359 100.686C121.017 94.3541 44.1071 86.5862 3.99211 101.782" stroke="white" stroke-width="3"/>
<path opacity="0.157895" d="M321.414 114.415C316.452 119.784 297.614 129.894 261.957 127.384C217.386 124.248 192.915 105.92 151.595 99.477C121.098 94.7219 42.9946 91.0395 6.25781 108.261" stroke="white" stroke-width="3"/>
<path opacity="0.210526" d="M324.959 104.317C321.14 109.917 304.506 120.962 268.524 120.34C223.545 119.564 195.398 102.623 152.965 98.3877C121.647 95.2617 43.2064 95.7054 10.2504 114.764" stroke="white" stroke-width="3"/>
<path opacity="0.263158" d="M326.782 94.2662C324.147 100.036 309.901 111.895 273.986 113.169C229.092 114.761 197.578 99.3922 154.498 97.4108C122.701 95.9484 44.7825 100.513 15.9683 121.2" stroke="white" stroke-width="3"/>
<path opacity="0.315789" d="M326.899 84.3533C325.479 90.2302 313.775 102.773 278.322 105.927C234.005 109.871 199.469 96.2433 156.213 96.5373C124.287 96.7544 47.7436 105.39 23.3869 127.478" stroke="white" stroke-width="3"/>
<path opacity="0.368421" d="M325.35 74.6671C325.159 80.5864 316.126 93.6754 281.522 98.6767C238.268 104.928 201.089 93.1906 158.131 95.757C126.425 97.6512 52.0957 110.263 32.4634 133.511" stroke="white" stroke-width="3"/>
<path opacity="0.421053" d="M322.19 65.2939C323.231 71.1909 316.968 84.6831 283.593 91.476C241.875 99.9671 202.46 90.2482 160.271 95.0588C129.132 98.6094 57.8318 115.06 43.1389 139.212" stroke="white" stroke-width="3"/>
<path opacity="0.473684" d="M317.494 56.3167C319.754 62.1267 316.329 75.8742 284.55 84.3843C244.825 95.022 203.606 87.4284 162.648 94.4304C132.417 99.5985 64.9268 119.707 55.3344 144.499" stroke="white" stroke-width="3"/>
<path opacity="0.526316" d="M311.351 47.8142C314.807 53.4735 314.259 67.3257 284.422 77.4598C247.126 90.1275 204.554 84.7422 165.276 93.8591C136.285 100.588 73.3437 124.134 68.9568 149.295" stroke="white" stroke-width="3"/>
<path opacity="0.578947" d="M303.871 39.8595C308.484 45.3062 310.817 59.1113 283.251 70.7584C248.792 85.3172 205.334 82.1994 168.166 93.3311C140.732 101.547 83.0298 128.273 83.8966 153.526" stroke="white" stroke-width="3"/>
<path opacity="0.631579" d="M295.169 32.5204C300.889 37.6948 306.079 51.3016 281.084 64.334C249.84 80.6245 205.973 79.8083 171.321 92.8329C145.746 102.446 93.9144 132.059 100.025 157.128" stroke="white" stroke-width="3"/>
<path opacity="0.684211" d="M285.388 25.8574C292.152 30.7027 300.142 43.9621 277.993 58.2371C250.306 76.0808 206.509 77.5751 174.755 92.3499C151.318 103.255 105.925 135.43 117.213 160.041" stroke="white" stroke-width="3"/>
<path opacity="0.736842" d="M274.666 19.9235C282.4 24.3867 293.102 37.1535 274.041 52.5146C250.214 71.716 206.968 75.5045 178.458 91.8676C157.416 103.945 118.96 138.33 135.301 162.213" stroke="white" stroke-width="3"/>
<path opacity="0.789474" d="M263.167 14.7645C271.786 18.7967 285.083 30.9309 269.319 47.2099C249.614 67.5587 207.392 73.5997 182.44 91.372C164.023 104.489 132.925 140.708 154.14 163.601" stroke="white" stroke-width="3"/>
<path opacity="0.842105" d="M251.053 10.4166C260.463 13.9737 276.209 25.3424 263.915 42.3609C248.548 63.634 207.813 71.8616 186.691 90.8481C171.102 104.862 147.701 142.517 173.559 164.169" stroke="white" stroke-width="3"/>
<path opacity="0.894737" d="M238.494 6.90806C248.592 9.95096 266.615 20.4297 257.926 38.0012C247.064 59.9656 208.262 70.2895 191.202 90.2824C178.611 105.039 163.165 143.717 193.382 163.892" stroke="white" stroke-width="3"/>
<path opacity="0.947368" d="M225.67 4.2575C236.345 6.75292 256.447 16.2268 251.457 34.1588C245.22 56.5739 208.777 68.881 195.966 89.6612C186.511 104.998 179.189 144.277 213.433 162.753" stroke="white" stroke-width="3"/>
<path d="M212.758 2.47411C223.893 4.39469 245.854 12.7599 244.619 30.856C243.075 53.4762 209.389 67.6316 200.968 88.9714C194.752 104.722 195.634 144.17 233.531 160.744" stroke="white" stroke-width="3"/>
</g>
<path d="M71.352 136.64L74.424 145.376L77.464 136.64H79.784L75.48 148H73.352L69.032 136.64H71.352ZM80.7885 148V139.616H82.9325V148H80.7885ZM80.7885 138.448V136.32H82.9325V138.448H80.7885ZM88.7546 148.16C88.0826 148.16 87.4746 148.048 86.9306 147.824C86.3866 147.589 85.9226 147.275 85.5386 146.88C85.1546 146.475 84.856 146.016 84.6426 145.504C84.44 144.981 84.3386 144.432 84.3386 143.856C84.3386 143.056 84.5146 142.325 84.8666 141.664C85.2293 141.003 85.7413 140.475 86.4026 140.08C87.0746 139.675 87.864 139.472 88.7706 139.472C89.688 139.472 90.472 139.675 91.1226 140.08C91.7733 140.475 92.2693 141.003 92.6106 141.664C92.9626 142.315 93.1386 143.019 93.1386 143.776C93.1386 143.904 93.1333 144.037 93.1226 144.176C93.112 144.304 93.1013 144.411 93.0906 144.496H86.6106C86.6533 144.923 86.776 145.296 86.9786 145.616C87.192 145.936 87.4586 146.181 87.7786 146.352C88.1093 146.512 88.4613 146.592 88.8346 146.592C89.2613 146.592 89.6613 146.491 90.0346 146.288C90.4186 146.075 90.68 145.797 90.8186 145.456L92.6586 145.968C92.456 146.395 92.1626 146.773 91.7786 147.104C91.4053 147.435 90.9626 147.696 90.4506 147.888C89.9386 148.069 89.3733 148.16 88.7546 148.16ZM86.5626 143.136H90.9466C90.904 142.709 90.7813 142.341 90.5786 142.032C90.3866 141.712 90.1306 141.467 89.8106 141.296C89.4906 141.115 89.1333 141.024 88.7386 141.024C88.3546 141.024 88.0026 141.115 87.6826 141.296C87.3733 141.467 87.1173 141.712 86.9146 142.032C86.7226 142.341 86.6053 142.709 86.5626 143.136ZM104.61 139.616H106.642L103.138 148H101.346L99.9384 144.4L98.5624 148H96.7544L93.2664 139.616H95.2824L97.7784 145.952L98.7544 143.216L97.2984 139.632H99.0744L99.9384 142.192L100.818 139.632H102.594L101.138 143.216L102.13 145.952L104.61 139.616ZM110.543 142.24C110.543 141.547 110.666 140.869 110.911 140.208C111.167 139.536 111.535 138.928 112.015 138.384C112.495 137.829 113.082 137.392 113.775 137.072C114.468 136.741 115.258 136.576 116.143 136.576C117.188 136.576 118.09 136.805 118.847 137.264C119.615 137.723 120.186 138.32 120.559 139.056L118.863 140.224C118.671 139.797 118.42 139.461 118.111 139.216C117.802 138.96 117.471 138.784 117.119 138.688C116.767 138.581 116.42 138.528 116.079 138.528C115.524 138.528 115.039 138.64 114.623 138.864C114.218 139.088 113.876 139.381 113.599 139.744C113.322 140.107 113.114 140.512 112.975 140.96C112.847 141.408 112.783 141.856 112.783 142.304C112.783 142.805 112.863 143.291 113.023 143.76C113.183 144.219 113.407 144.629 113.695 144.992C113.994 145.344 114.346 145.627 114.751 145.84C115.167 146.043 115.62 146.144 116.111 146.144C116.463 146.144 116.82 146.085 117.183 145.968C117.546 145.851 117.882 145.664 118.191 145.408C118.5 145.152 118.74 144.821 118.911 144.416L120.719 145.456C120.495 146.021 120.127 146.501 119.615 146.896C119.114 147.291 118.548 147.589 117.919 147.792C117.29 147.995 116.666 148.096 116.047 148.096C115.236 148.096 114.495 147.931 113.823 147.6C113.151 147.259 112.57 146.811 112.079 146.256C111.599 145.691 111.22 145.061 110.943 144.368C110.676 143.664 110.543 142.955 110.543 142.24ZM125.832 148.16C125.15 148.16 124.536 148.048 123.992 147.824C123.448 147.589 122.984 147.269 122.6 146.864C122.227 146.459 121.939 145.995 121.736 145.472C121.534 144.949 121.432 144.4 121.432 143.824C121.432 143.237 121.534 142.683 121.736 142.16C121.939 141.637 122.227 141.173 122.6 140.768C122.984 140.363 123.448 140.048 123.992 139.824C124.536 139.589 125.15 139.472 125.832 139.472C126.515 139.472 127.123 139.589 127.656 139.824C128.2 140.048 128.664 140.363 129.048 140.768C129.432 141.173 129.72 141.637 129.912 142.16C130.115 142.683 130.216 143.237 130.216 143.824C130.216 144.4 130.115 144.949 129.912 145.472C129.72 145.995 129.432 146.459 129.048 146.864C128.675 147.269 128.216 147.589 127.672 147.824C127.128 148.048 126.515 148.16 125.832 148.16ZM123.64 143.824C123.64 144.315 123.736 144.752 123.928 145.136C124.12 145.509 124.382 145.803 124.712 146.016C125.043 146.229 125.416 146.336 125.832 146.336C126.238 146.336 126.606 146.229 126.936 146.016C127.267 145.792 127.528 145.493 127.72 145.12C127.923 144.736 128.024 144.299 128.024 143.808C128.024 143.328 127.923 142.896 127.72 142.512C127.528 142.128 127.267 141.829 126.936 141.616C126.606 141.403 126.238 141.296 125.832 141.296C125.416 141.296 125.043 141.408 124.712 141.632C124.382 141.845 124.12 142.144 123.928 142.528C123.736 142.901 123.64 143.333 123.64 143.824ZM139.456 148H137.312V143.296C137.312 142.624 137.194 142.133 136.96 141.824C136.725 141.515 136.4 141.36 135.984 141.36C135.696 141.36 135.402 141.435 135.104 141.584C134.816 141.733 134.554 141.941 134.32 142.208C134.085 142.464 133.914 142.763 133.808 143.104V148H131.664V139.616H133.6V141.168C133.813 140.805 134.085 140.501 134.416 140.256C134.746 140 135.125 139.808 135.552 139.68C135.989 139.541 136.448 139.472 136.928 139.472C137.45 139.472 137.877 139.568 138.208 139.76C138.549 139.941 138.805 140.192 138.976 140.512C139.157 140.821 139.28 141.173 139.344 141.568C139.418 141.963 139.456 142.363 139.456 142.768V148ZM149.112 148H146.968V143.296C146.968 142.624 146.85 142.133 146.616 141.824C146.381 141.515 146.056 141.36 145.64 141.36C145.352 141.36 145.058 141.435 144.76 141.584C144.472 141.733 144.21 141.941 143.976 142.208C143.741 142.464 143.57 142.763 143.464 143.104V148H141.32V139.616H143.256V141.168C143.469 140.805 143.741 140.501 144.072 140.256C144.402 140 144.781 139.808 145.208 139.68C145.645 139.541 146.104 139.472 146.584 139.472C147.106 139.472 147.533 139.568 147.864 139.76C148.205 139.941 148.461 140.192 148.632 140.512C148.813 140.821 148.936 141.173 149 141.568C149.074 141.963 149.112 142.363 149.112 142.768V148ZM154.864 148.16C154.192 148.16 153.584 148.048 153.04 147.824C152.496 147.589 152.032 147.275 151.648 146.88C151.264 146.475 150.965 146.016 150.752 145.504C150.549 144.981 150.448 144.432 150.448 143.856C150.448 143.056 150.624 142.325 150.976 141.664C151.339 141.003 151.851 140.475 152.512 140.08C153.184 139.675 153.973 139.472 154.88 139.472C155.797 139.472 156.581 139.675 157.232 140.08C157.883 140.475 158.379 141.003 158.72 141.664C159.072 142.315 159.248 143.019 159.248 143.776C159.248 143.904 159.243 144.037 159.232 144.176C159.221 144.304 159.211 144.411 159.2 144.496H152.72C152.763 144.923 152.885 145.296 153.088 145.616C153.301 145.936 153.568 146.181 153.888 146.352C154.219 146.512 154.571 146.592 154.944 146.592C155.371 146.592 155.771 146.491 156.144 146.288C156.528 146.075 156.789 145.797 156.928 145.456L158.768 145.968C158.565 146.395 158.272 146.773 157.888 147.104C157.515 147.435 157.072 147.696 156.56 147.888C156.048 148.069 155.483 148.16 154.864 148.16ZM152.672 143.136H157.056C157.013 142.709 156.891 142.341 156.688 142.032C156.496 141.712 156.24 141.467 155.92 141.296C155.6 141.115 155.243 141.024 154.848 141.024C154.464 141.024 154.112 141.115 153.792 141.296C153.483 141.467 153.227 141.712 153.024 142.032C152.832 142.341 152.715 142.709 152.672 143.136ZM164.458 148.16C163.775 148.16 163.162 148.048 162.618 147.824C162.074 147.589 161.61 147.269 161.226 146.864C160.842 146.448 160.543 145.979 160.33 145.456C160.127 144.933 160.026 144.384 160.026 143.808C160.026 143.019 160.202 142.299 160.554 141.648C160.917 140.987 161.429 140.459 162.09 140.064C162.751 139.669 163.535 139.472 164.442 139.472C165.349 139.472 166.127 139.669 166.778 140.064C167.429 140.459 167.914 140.976 168.234 141.616L166.138 142.256C165.957 141.947 165.717 141.712 165.418 141.552C165.119 141.381 164.789 141.296 164.426 141.296C164.021 141.296 163.647 141.403 163.306 141.616C162.975 141.819 162.714 142.112 162.522 142.496C162.33 142.869 162.234 143.307 162.234 143.808C162.234 144.299 162.33 144.736 162.522 145.12C162.725 145.493 162.991 145.792 163.322 146.016C163.653 146.229 164.021 146.336 164.426 146.336C164.682 146.336 164.922 146.293 165.146 146.208C165.381 146.123 165.589 146.005 165.77 145.856C165.951 145.707 166.085 145.536 166.17 145.344L168.266 145.984C168.074 146.4 167.791 146.773 167.418 147.104C167.055 147.435 166.623 147.696 166.122 147.888C165.631 148.069 165.077 148.16 164.458 148.16ZM174.609 147.568C174.428 147.643 174.209 147.728 173.953 147.824C173.697 147.92 173.42 147.995 173.121 148.048C172.833 148.112 172.54 148.144 172.241 148.144C171.847 148.144 171.484 148.075 171.153 147.936C170.823 147.797 170.556 147.579 170.353 147.28C170.161 146.971 170.065 146.571 170.065 146.08V141.264H168.961V139.616H170.065V136.896H172.209V139.616H173.969V141.264H172.209V145.36C172.22 145.648 172.3 145.856 172.449 145.984C172.599 146.112 172.785 146.176 173.009 146.176C173.233 146.176 173.452 146.139 173.665 146.064C173.879 145.989 174.049 145.925 174.177 145.872L174.609 147.568ZM175.726 148V139.616H177.87V148H175.726ZM175.726 138.448V136.32H177.87V138.448H175.726ZM183.676 148.16C182.993 148.16 182.38 148.048 181.836 147.824C181.292 147.589 180.828 147.269 180.444 146.864C180.071 146.459 179.783 145.995 179.58 145.472C179.377 144.949 179.276 144.4 179.276 143.824C179.276 143.237 179.377 142.683 179.58 142.16C179.783 141.637 180.071 141.173 180.444 140.768C180.828 140.363 181.292 140.048 181.836 139.824C182.38 139.589 182.993 139.472 183.676 139.472C184.359 139.472 184.967 139.589 185.5 139.824C186.044 140.048 186.508 140.363 186.892 140.768C187.276 141.173 187.564 141.637 187.756 142.16C187.959 142.683 188.06 143.237 188.06 143.824C188.06 144.4 187.959 144.949 187.756 145.472C187.564 145.995 187.276 146.459 186.892 146.864C186.519 147.269 186.06 147.589 185.516 147.824C184.972 148.048 184.359 148.16 183.676 148.16ZM181.484 143.824C181.484 144.315 181.58 144.752 181.772 145.136C181.964 145.509 182.225 145.803 182.556 146.016C182.887 146.229 183.26 146.336 183.676 146.336C184.081 146.336 184.449 146.229 184.78 146.016C185.111 145.792 185.372 145.493 185.564 145.12C185.767 144.736 185.868 144.299 185.868 143.808C185.868 143.328 185.767 142.896 185.564 142.512C185.372 142.128 185.111 141.829 184.78 141.616C184.449 141.403 184.081 141.296 183.676 141.296C183.26 141.296 182.887 141.408 182.556 141.632C182.225 141.845 181.964 142.144 181.772 142.528C181.58 142.901 181.484 143.333 181.484 143.824ZM197.299 148H195.155V143.296C195.155 142.624 195.038 142.133 194.803 141.824C194.569 141.515 194.243 141.36 193.827 141.36C193.539 141.36 193.246 141.435 192.947 141.584C192.659 141.733 192.398 141.941 192.163 142.208C191.929 142.464 191.758 142.763 191.651 143.104V148H189.507V139.616H191.443V141.168C191.657 140.805 191.929 140.501 192.259 140.256C192.59 140 192.969 139.808 193.395 139.68C193.833 139.541 194.291 139.472 194.771 139.472C195.294 139.472 195.721 139.568 196.051 139.76C196.393 139.941 196.649 140.192 196.819 140.512C197.001 140.821 197.123 141.173 197.187 141.568C197.262 141.963 197.299 142.363 197.299 142.768V148ZM203.215 148V136.64H208.239C208.762 136.64 209.242 136.747 209.679 136.96C210.127 137.173 210.511 137.461 210.831 137.824C211.162 138.187 211.413 138.592 211.583 139.04C211.765 139.488 211.855 139.947 211.855 140.416C211.855 140.896 211.77 141.36 211.599 141.808C211.439 142.245 211.205 142.629 210.895 142.96C210.586 143.291 210.223 143.547 209.807 143.728L212.399 148H209.967L207.631 144.192H205.423V148H203.215ZM205.423 142.256H208.191C208.469 142.256 208.714 142.176 208.927 142.016C209.141 141.845 209.311 141.621 209.439 141.344C209.567 141.067 209.631 140.757 209.631 140.416C209.631 140.053 209.557 139.739 209.407 139.472C209.258 139.195 209.066 138.976 208.831 138.816C208.607 138.656 208.362 138.576 208.095 138.576H205.423V142.256ZM217.255 148.16C216.583 148.16 215.975 148.048 215.431 147.824C214.887 147.589 214.423 147.275 214.039 146.88C213.655 146.475 213.356 146.016 213.143 145.504C212.94 144.981 212.839 144.432 212.839 143.856C212.839 143.056 213.015 142.325 213.367 141.664C213.729 141.003 214.241 140.475 214.903 140.08C215.575 139.675 216.364 139.472 217.271 139.472C218.188 139.472 218.972 139.675 219.623 140.08C220.273 140.475 220.769 141.003 221.111 141.664C221.463 142.315 221.639 143.019 221.639 143.776C221.639 143.904 221.633 144.037 221.623 144.176C221.612 144.304 221.601 144.411 221.591 144.496H215.111C215.153 144.923 215.276 145.296 215.479 145.616C215.692 145.936 215.959 146.181 216.279 146.352C216.609 146.512 216.961 146.592 217.335 146.592C217.761 146.592 218.161 146.491 218.535 146.288C218.919 146.075 219.18 145.797 219.319 145.456L221.159 145.968C220.956 146.395 220.663 146.773 220.279 147.104C219.905 147.435 219.463 147.696 218.951 147.888C218.439 148.069 217.873 148.16 217.255 148.16ZM215.063 143.136H219.447C219.404 142.709 219.281 142.341 219.079 142.032C218.887 141.712 218.631 141.467 218.311 141.296C217.991 141.115 217.633 141.024 217.239 141.024C216.855 141.024 216.503 141.115 216.183 141.296C215.873 141.467 215.617 141.712 215.415 142.032C215.223 142.341 215.105 142.709 215.063 143.136ZM226.113 148.16C225.579 148.16 225.089 148.048 224.641 147.824C224.193 147.589 223.803 147.275 223.473 146.88C223.142 146.485 222.886 146.021 222.705 145.488C222.534 144.955 222.449 144.389 222.449 143.792C222.449 143.184 222.545 142.619 222.737 142.096C222.939 141.573 223.217 141.115 223.569 140.72C223.921 140.325 224.337 140.021 224.817 139.808C225.297 139.584 225.814 139.472 226.369 139.472C227.009 139.472 227.574 139.621 228.065 139.92C228.555 140.208 228.955 140.592 229.265 141.072V139.616H231.137V151.408H228.993V146.528C228.353 147.616 227.393 148.16 226.113 148.16ZM226.913 146.336C227.222 146.336 227.499 146.277 227.745 146.16C228.001 146.043 228.23 145.883 228.433 145.68C228.646 145.467 228.833 145.227 228.993 144.96V142.976C228.939 142.741 228.838 142.523 228.689 142.32C228.55 142.117 228.379 141.941 228.177 141.792C227.985 141.632 227.777 141.509 227.553 141.424C227.329 141.339 227.105 141.296 226.881 141.296C226.55 141.296 226.246 141.365 225.969 141.504C225.702 141.643 225.467 141.835 225.265 142.08C225.062 142.315 224.907 142.587 224.801 142.896C224.694 143.195 224.641 143.515 224.641 143.856C224.641 144.315 224.737 144.731 224.929 145.104C225.121 145.477 225.387 145.776 225.729 146C226.07 146.224 226.465 146.336 226.913 146.336ZM233.005 144.864V139.616H235.149V144.4C235.149 145.04 235.267 145.525 235.501 145.856C235.736 146.176 236.083 146.336 236.541 146.336C236.819 146.336 237.091 146.283 237.357 146.176C237.635 146.059 237.885 145.888 238.109 145.664C238.344 145.44 238.541 145.157 238.701 144.816V139.616H240.845V145.6C240.845 145.824 240.883 145.984 240.957 146.08C241.043 146.176 241.176 146.235 241.357 146.256V148C241.144 148.032 240.963 148.053 240.813 148.064C240.675 148.085 240.547 148.096 240.429 148.096C240.045 148.096 239.731 148.011 239.485 147.84C239.251 147.659 239.112 147.413 239.069 147.104L239.021 146.432C238.648 146.997 238.168 147.429 237.581 147.728C236.995 148.016 236.349 148.16 235.645 148.16C234.781 148.16 234.125 147.883 233.677 147.328C233.229 146.763 233.005 145.941 233.005 144.864ZM246.864 148.16C246.192 148.16 245.584 148.048 245.04 147.824C244.496 147.589 244.032 147.275 243.648 146.88C243.264 146.475 242.965 146.016 242.752 145.504C242.549 144.981 242.448 144.432 242.448 143.856C242.448 143.056 242.624 142.325 242.976 141.664C243.339 141.003 243.851 140.475 244.512 140.08C245.184 139.675 245.973 139.472 246.88 139.472C247.797 139.472 248.581 139.675 249.232 140.08C249.883 140.475 250.379 141.003 250.72 141.664C251.072 142.315 251.248 143.019 251.248 143.776C251.248 143.904 251.243 144.037 251.232 144.176C251.221 144.304 251.211 144.411 251.2 144.496H244.72C244.763 144.923 244.885 145.296 245.088 145.616C245.301 145.936 245.568 146.181 245.888 146.352C246.219 146.512 246.571 146.592 246.944 146.592C247.371 146.592 247.771 146.491 248.144 146.288C248.528 146.075 248.789 145.797 248.928 145.456L250.768 145.968C250.565 146.395 250.272 146.773 249.888 147.104C249.515 147.435 249.072 147.696 248.56 147.888C248.048 148.069 247.483 148.16 246.864 148.16ZM244.672 143.136H249.056C249.013 142.709 248.891 142.341 248.688 142.032C248.496 141.712 248.24 141.467 247.92 141.296C247.6 141.115 247.243 141.024 246.848 141.024C246.464 141.024 246.112 141.115 245.792 141.296C245.483 141.467 245.227 141.712 245.024 142.032C244.832 142.341 244.715 142.709 244.672 143.136ZM255.642 148.16C254.927 148.16 254.245 148.043 253.594 147.808C252.943 147.573 252.383 147.227 251.914 146.768L252.682 145.376C253.183 145.781 253.674 146.08 254.154 146.272C254.645 146.464 255.114 146.56 255.562 146.56C255.978 146.56 256.309 146.485 256.554 146.336C256.81 146.187 256.938 145.963 256.938 145.664C256.938 145.461 256.869 145.307 256.73 145.2C256.591 145.083 256.389 144.981 256.122 144.896C255.866 144.811 255.551 144.715 255.178 144.608C254.559 144.405 254.042 144.208 253.626 144.016C253.21 143.824 252.895 143.584 252.682 143.296C252.479 142.997 252.378 142.619 252.378 142.16C252.378 141.605 252.517 141.131 252.794 140.736C253.082 140.331 253.477 140.016 253.978 139.792C254.49 139.568 255.087 139.456 255.77 139.456C256.367 139.456 256.933 139.552 257.466 139.744C257.999 139.925 258.485 140.224 258.922 140.64L258.058 142C257.631 141.669 257.226 141.429 256.842 141.28C256.458 141.12 256.069 141.04 255.674 141.04C255.45 141.04 255.237 141.067 255.034 141.12C254.842 141.173 254.682 141.264 254.554 141.392C254.437 141.509 254.378 141.68 254.378 141.904C254.378 142.107 254.431 142.267 254.538 142.384C254.655 142.491 254.826 142.587 255.05 142.672C255.285 142.757 255.567 142.853 255.898 142.96C256.57 143.152 257.135 143.349 257.594 143.552C258.063 143.755 258.415 144.005 258.65 144.304C258.885 144.592 259.002 144.992 259.002 145.504C259.002 146.336 258.698 146.987 258.09 147.456C257.482 147.925 256.666 148.16 255.642 148.16ZM265.438 147.568C265.256 147.643 265.038 147.728 264.782 147.824C264.526 147.92 264.248 147.995 263.95 148.048C263.662 148.112 263.368 148.144 263.07 148.144C262.675 148.144 262.312 148.075 261.982 147.936C261.651 147.797 261.384 147.579 261.182 147.28C260.99 146.971 260.894 146.571 260.894 146.08V141.264H259.79V139.616H260.894V136.896H263.038V139.616H264.798V141.264H263.038V145.36C263.048 145.648 263.128 145.856 263.278 145.984C263.427 146.112 263.614 146.176 263.838 146.176C264.062 146.176 264.28 146.139 264.494 146.064C264.707 145.989 264.878 145.925 265.006 145.872L265.438 147.568Z" fill="white"/>
<path d="M209.438 60.4219H170.391V49.2656H174.375C175.854 49.2656 177.273 48.6779 178.319 47.6318C179.365 46.5857 179.953 45.1669 179.953 43.6875V30.9375C179.953 29.4581 179.365 28.0393 178.319 26.9932C177.273 25.9471 175.854 25.3594 174.375 25.3594H161.625C160.146 25.3594 158.727 25.9471 157.681 26.9932C156.635 28.0393 156.047 29.4581 156.047 30.9375V43.6875C156.047 45.1669 156.635 46.5857 157.681 47.6318C158.727 48.6779 160.146 49.2656 161.625 49.2656H165.609V60.4219H126.562C125.928 60.4219 125.32 60.6737 124.872 61.1221C124.424 61.5704 124.172 62.1785 124.172 62.8125C124.172 63.4465 124.424 64.0546 124.872 64.5029C125.32 64.9513 125.928 65.2031 126.562 65.2031H140.109V79.5469H136.125C134.646 79.5469 133.227 80.1346 132.181 81.1807C131.135 82.2268 130.547 83.6456 130.547 85.125V97.875C130.547 99.3544 131.135 100.773 132.181 101.819C133.227 102.865 134.646 103.453 136.125 103.453H148.875C150.354 103.453 151.773 102.865 152.819 101.819C153.865 100.773 154.453 99.3544 154.453 97.875V85.125C154.453 83.6456 153.865 82.2268 152.819 81.1807C151.773 80.1346 150.354 79.5469 148.875 79.5469H144.891V65.2031H191.109V79.5469H187.125C185.646 79.5469 184.227 80.1346 183.181 81.1807C182.135 82.2268 181.547 83.6456 181.547 85.125V97.875C181.547 99.3544 182.135 100.773 183.181 101.819C184.227 102.865 185.646 103.453 187.125 103.453H199.875C201.354 103.453 202.773 102.865 203.819 101.819C204.865 100.773 205.453 99.3544 205.453 97.875V85.125C205.453 83.6456 204.865 82.2268 203.819 81.1807C202.773 80.1346 201.354 79.5469 199.875 79.5469H195.891V65.2031H209.438C210.072 65.2031 210.68 64.9513 211.128 64.5029C211.576 64.0546 211.828 63.4465 211.828 62.8125C211.828 62.1785 211.576 61.5704 211.128 61.1221C210.68 60.6737 210.072 60.4219 209.438 60.4219ZM160.828 43.6875V30.9375C160.828 30.7262 160.912 30.5235 161.062 30.374C161.211 30.2246 161.414 30.1406 161.625 30.1406H174.375C174.586 30.1406 174.789 30.2246 174.938 30.374C175.088 30.5235 175.172 30.7262 175.172 30.9375V43.6875C175.172 43.8988 175.088 44.1015 174.938 44.251C174.789 44.4004 174.586 44.4844 174.375 44.4844H161.625C161.414 44.4844 161.211 44.4004 161.062 44.251C160.912 44.1015 160.828 43.8988 160.828 43.6875ZM149.672 85.125V97.875C149.672 98.0863 149.588 98.289 149.438 98.4385C149.289 98.5879 149.086 98.6719 148.875 98.6719H136.125C135.914 98.6719 135.711 98.5879 135.562 98.4385C135.412 98.289 135.328 98.0863 135.328 97.875V85.125C135.328 84.9137 135.412 84.711 135.562 84.5615C135.711 84.4121 135.914 84.3281 136.125 84.3281H148.875C149.086 84.3281 149.289 84.4121 149.438 84.5615C149.588 84.711 149.672 84.9137 149.672 85.125ZM200.672 85.125V97.875C200.672 98.0863 200.588 98.289 200.438 98.4385C200.289 98.5879 200.086 98.6719 199.875 98.6719H187.125C186.914 98.6719 186.711 98.5879 186.562 98.4385C186.412 98.289 186.328 98.0863 186.328 97.875V85.125C186.328 84.9137 186.412 84.711 186.562 84.5615C186.711 84.4121 186.914 84.3281 187.125 84.3281H199.875C200.086 84.3281 200.289 84.4121 200.438 84.5615C200.588 84.711 200.672 84.9137 200.672 85.125Z" fill="white"/>
<defs>
<linearGradient id="paint0_linear_785_2602" x1="36.4718" y1="26.7975" x2="89.6059" y2="231.115" gradientUnits="userSpaceOnUse">
<stop stop-color="#5939AB"/>
<stop offset="1" stop-color="#422A7E"/>
</linearGradient>
</defs>
</svg>
