<svg width="24" height="24" viewBox="0 0 24 24" fill="none" xmlns="http://www.w3.org/2000/svg">
<g clip-path="url(#clip0_313_1637)">
<path d="M12.0976 5.78307C13.692 5.78307 14.9891 4.48594 14.9891 2.89154C14.9891 1.29713 13.6919 0 12.0976 0C10.5033 0 9.20605 1.29713 9.20605 2.89154C9.20605 4.48594 10.5032 5.78307 12.0976 5.78307ZM12.0976 1.37143C12.9358 1.37143 13.6177 2.05335 13.6177 2.89154C13.6177 3.72972 12.9358 4.41164 12.0976 4.41164C11.2594 4.41164 10.5775 3.72964 10.5775 2.89154C10.5775 2.05343 11.2594 1.37143 12.0976 1.37143Z" fill="#321B48"/>
<path d="M15.2362 6.5238C15.2311 6.52211 14.4423 6.28001 14.4423 6.28001C14.0934 6.17288 13.7218 6.35794 13.5969 6.70072L12.7601 8.99673L12.466 7.68686L12.952 6.84504C13.0169 6.73267 13.0169 6.59439 12.952 6.48202C12.8871 6.36964 12.7673 6.3005 12.6376 6.3005H11.557C11.4274 6.3005 11.3075 6.36964 11.2426 6.48202C11.1778 6.59439 11.1778 6.73267 11.2426 6.84504L11.7287 7.68686L11.4346 8.99673L10.5977 6.70072C10.4726 6.35786 10.101 6.17272 9.7523 6.28001C9.7523 6.28001 8.96356 6.52211 8.95832 6.5238C7.78696 6.91418 7 8.00608 7 9.24085V13.9966C7 14.1305 7.03913 14.2613 7.11262 14.3732L8.74938 16.864V23.3143C8.74938 23.693 9.05642 24 9.43509 24H14.7595C15.1381 24 15.4452 23.693 15.4452 23.3143V16.864L17.0819 14.3732C17.1554 14.2613 17.1946 14.1305 17.1946 13.9966V9.24085C17.1946 8.00608 16.4075 6.91418 15.2362 6.5238ZM15.8231 13.7915L14.1864 16.2822C14.1129 16.3941 14.0737 16.525 14.0737 16.6588V22.6286H10.1208V16.6588C10.1208 16.525 10.0817 16.3941 10.0082 16.2822L8.37143 13.7915V9.24085C8.37143 8.59991 8.77834 8.0327 9.38483 7.82731L9.53214 7.78205L11.4531 13.0525C11.5519 13.3232 11.8092 13.5034 12.0974 13.5034C12.3855 13.5034 12.6429 13.3233 12.7416 13.0525L14.6626 7.78205L14.8098 7.82731C15.4164 8.0327 15.8233 8.59982 15.8233 9.24085V13.7915H15.8231Z" fill="#321B48"/>
</g>
<defs>
<clipPath id="clip0_313_1637">
<rect width="24" height="24" fill="white"/>
</clipPath>
</defs>
</svg>
