<svg width="25" height="25" viewBox="0 0 25 25" fill="none" xmlns="http://www.w3.org/2000/svg">
<g id="vuesax/linear/setting-4">
<g id="setting-4">
<path id="Vector" d="M22.9395 6.97058H16.9395" stroke="#303030" stroke-width="1.5" stroke-miterlimit="10" stroke-linecap="round" stroke-linejoin="round"/>
<path id="Vector_2" d="M6.93945 6.97058H2.93945" stroke="#303030" stroke-width="1.5" stroke-miterlimit="10" stroke-linecap="round" stroke-linejoin="round"/>
<path id="Vector_3" d="M10.9395 10.4706C12.8724 10.4706 14.4395 8.90358 14.4395 6.97058C14.4395 5.03758 12.8724 3.47058 10.9395 3.47058C9.00646 3.47058 7.43945 5.03758 7.43945 6.97058C7.43945 8.90358 9.00646 10.4706 10.9395 10.4706Z" stroke="#303030" stroke-width="1.5" stroke-miterlimit="10" stroke-linecap="round" stroke-linejoin="round"/>
<path id="Vector_4" d="M22.9395 17.9706H18.9395" stroke="#303030" stroke-width="1.5" stroke-miterlimit="10" stroke-linecap="round" stroke-linejoin="round"/>
<path id="Vector_5" d="M8.93945 17.9706H2.93945" stroke="#303030" stroke-width="1.5" stroke-miterlimit="10" stroke-linecap="round" stroke-linejoin="round"/>
<path id="Vector_6" d="M14.9395 21.4706C16.8724 21.4706 18.4395 19.9036 18.4395 17.9706C18.4395 16.0376 16.8724 14.4706 14.9395 14.4706C13.0065 14.4706 11.4395 16.0376 11.4395 17.9706C11.4395 19.9036 13.0065 21.4706 14.9395 21.4706Z" stroke="#303030" stroke-width="1.5" stroke-miterlimit="10" stroke-linecap="round" stroke-linejoin="round"/>
</g>
</g>
</svg>
