<svg width="335" height="168" viewBox="0 0 335 168" fill="none" xmlns="http://www.w3.org/2000/svg">
<rect width="335" height="168" rx="8" fill="url(#paint0_linear_779_1988)"/>
<g style="mix-blend-mode:soft-light">
<path fill-rule="evenodd" clip-rule="evenodd" d="M8 7.56H328V167.16H8V7.56ZM8.5 7.845H47.5V30.075H8.5V7.845ZM48.5 7.845H87.5V30.075H48.5V7.845ZM127.5 7.845H88.5V30.075H127.5V7.845ZM128.5 7.845H167.5V30.075H128.5V7.845ZM207.5 7.845H168.5V30.075H207.5V7.845ZM208.5 7.845H247.5V30.075H208.5V7.845ZM287.5 7.845H248.5V30.075H287.5V7.845ZM288.5 7.845H327.5V30.075H288.5V7.845ZM47.5 30.645H8.5V52.875H47.5V30.645ZM48.5 30.645H87.5V52.875H48.5V30.645ZM127.5 30.645H88.5V52.875H127.5V30.645ZM128.5 30.645H167.5V52.875H128.5V30.645ZM207.5 30.645H168.5V52.875H207.5V30.645ZM208.5 30.645H247.5V52.875H208.5V30.645ZM287.5 30.645H248.5V52.875H287.5V30.645ZM288.5 30.645H327.5V52.875H288.5V30.645ZM47.5 53.445H8.5V75.675H47.5V53.445ZM48.5 53.445H87.5V75.675H48.5V53.445ZM127.5 53.445H88.5V75.675H127.5V53.445ZM128.5 53.445H167.5V75.675H128.5V53.445ZM207.5 53.445H168.5V75.675H207.5V53.445ZM208.5 53.445H247.5V75.675H208.5V53.445ZM287.5 53.445H248.5V75.675H287.5V53.445ZM288.5 53.445H327.5V75.675H288.5V53.445ZM47.5 76.245H8.5V98.475H47.5V76.245ZM48.5 76.245H87.5V98.475H48.5V76.245ZM127.5 76.245H88.5V98.475H127.5V76.245ZM128.5 76.245H167.5V98.475H128.5V76.245ZM207.5 76.245H168.5V98.475H207.5V76.245ZM208.5 76.245H247.5V98.475H208.5V76.245ZM287.5 76.245H248.5V98.475H287.5V76.245ZM288.5 76.245H327.5V98.475H288.5V76.245ZM47.5 99.045H8.5V121.275H47.5V99.045ZM48.5 99.045H87.5V121.275H48.5V99.045ZM127.5 99.045H88.5V121.275H127.5V99.045ZM128.5 99.045H167.5V121.275H128.5V99.045ZM207.5 99.045H168.5V121.275H207.5V99.045ZM208.5 99.045H247.5V121.275H208.5V99.045ZM287.5 99.045H248.5V121.275H287.5V99.045ZM288.5 99.045H327.5V121.275H288.5V99.045ZM47.5 121.845H8.5V144.075H47.5V121.845ZM48.5 121.845H87.5V144.075H48.5V121.845ZM127.5 121.845H88.5V144.075H127.5V121.845ZM128.5 121.845H167.5V144.075H128.5V121.845ZM207.5 121.845H168.5V144.075H207.5V121.845ZM208.5 121.845H247.5V144.075H208.5V121.845ZM287.5 121.845H248.5V144.075H287.5V121.845ZM288.5 121.845H327.5V144.075H288.5V121.845ZM47.5 144.645H8.5V166.875H47.5V144.645ZM48.5 144.645H87.5V166.875H48.5V144.645ZM127.5 144.645H88.5V166.875H127.5V144.645ZM128.5 144.645H167.5V166.875H128.5V144.645ZM207.5 144.645H168.5V166.875H207.5V144.645ZM208.5 144.645H247.5V166.875H208.5V144.645ZM287.5 144.645H248.5V166.875H287.5V144.645ZM288.5 144.645H327.5V166.875H288.5V144.645Z" fill="#5939AB"/>
</g>
<path d="M84.352 136.64L87.424 145.376L90.464 136.64H92.784L88.48 148H86.352L82.032 136.64H84.352ZM93.7885 148V139.616H95.9325V148H93.7885ZM93.7885 138.448V136.32H95.9325V138.448H93.7885ZM101.755 148.16C101.083 148.16 100.475 148.048 99.9306 147.824C99.3866 147.589 98.9226 147.275 98.5386 146.88C98.1546 146.475 97.856 146.016 97.6426 145.504C97.44 144.981 97.3386 144.432 97.3386 143.856C97.3386 143.056 97.5146 142.325 97.8666 141.664C98.2293 141.003 98.7413 140.475 99.4026 140.08C100.075 139.675 100.864 139.472 101.771 139.472C102.688 139.472 103.472 139.675 104.123 140.08C104.773 140.475 105.269 141.003 105.611 141.664C105.963 142.315 106.139 143.019 106.139 143.776C106.139 143.904 106.133 144.037 106.123 144.176C106.112 144.304 106.101 144.411 106.091 144.496H99.6106C99.6533 144.923 99.776 145.296 99.9786 145.616C100.192 145.936 100.459 146.181 100.779 146.352C101.109 146.512 101.461 146.592 101.835 146.592C102.261 146.592 102.661 146.491 103.035 146.288C103.419 146.075 103.68 145.797 103.819 145.456L105.659 145.968C105.456 146.395 105.163 146.773 104.779 147.104C104.405 147.435 103.963 147.696 103.451 147.888C102.939 148.069 102.373 148.16 101.755 148.16ZM99.5626 143.136H103.947C103.904 142.709 103.781 142.341 103.579 142.032C103.387 141.712 103.131 141.467 102.811 141.296C102.491 141.115 102.133 141.024 101.739 141.024C101.355 141.024 101.003 141.115 100.683 141.296C100.373 141.467 100.117 141.712 99.9146 142.032C99.7226 142.341 99.6053 142.709 99.5626 143.136ZM117.61 139.616H119.642L116.138 148H114.346L112.938 144.4L111.562 148H109.754L106.266 139.616H108.282L110.778 145.952L111.754 143.216L110.298 139.632H112.074L112.938 142.192L113.818 139.632H115.594L114.138 143.216L115.13 145.952L117.61 139.616ZM133.495 148V140.544L130.583 146.096H129.351L126.439 140.544V148H124.231V136.64H126.599L129.959 143.104L133.351 136.64H135.703V148H133.495ZM141.614 148.16C140.942 148.16 140.334 148.048 139.79 147.824C139.246 147.589 138.782 147.275 138.398 146.88C138.014 146.475 137.715 146.016 137.502 145.504C137.299 144.981 137.198 144.432 137.198 143.856C137.198 143.056 137.374 142.325 137.726 141.664C138.089 141.003 138.601 140.475 139.262 140.08C139.934 139.675 140.723 139.472 141.63 139.472C142.547 139.472 143.331 139.675 143.982 140.08C144.633 140.475 145.129 141.003 145.47 141.664C145.822 142.315 145.998 143.019 145.998 143.776C145.998 143.904 145.993 144.037 145.982 144.176C145.971 144.304 145.961 144.411 145.95 144.496H139.47C139.513 144.923 139.635 145.296 139.838 145.616C140.051 145.936 140.318 146.181 140.638 146.352C140.969 146.512 141.321 146.592 141.694 146.592C142.121 146.592 142.521 146.491 142.894 146.288C143.278 146.075 143.539 145.797 143.678 145.456L145.518 145.968C145.315 146.395 145.022 146.773 144.638 147.104C144.265 147.435 143.822 147.696 143.31 147.888C142.798 148.069 142.233 148.16 141.614 148.16ZM139.422 143.136H143.806C143.763 142.709 143.641 142.341 143.438 142.032C143.246 141.712 142.99 141.467 142.67 141.296C142.35 141.115 141.993 141.024 141.598 141.024C141.214 141.024 140.862 141.115 140.542 141.296C140.233 141.467 139.977 141.712 139.774 142.032C139.582 142.341 139.465 142.709 139.422 143.136ZM151.192 148.16C150.52 148.16 149.912 148.048 149.368 147.824C148.824 147.589 148.36 147.275 147.976 146.88C147.592 146.475 147.293 146.016 147.08 145.504C146.877 144.981 146.776 144.432 146.776 143.856C146.776 143.056 146.952 142.325 147.304 141.664C147.667 141.003 148.179 140.475 148.84 140.08C149.512 139.675 150.301 139.472 151.208 139.472C152.125 139.472 152.909 139.675 153.56 140.08C154.211 140.475 154.707 141.003 155.048 141.664C155.4 142.315 155.576 143.019 155.576 143.776C155.576 143.904 155.571 144.037 155.56 144.176C155.549 144.304 155.539 144.411 155.528 144.496H149.048C149.091 144.923 149.213 145.296 149.416 145.616C149.629 145.936 149.896 146.181 150.216 146.352C150.547 146.512 150.899 146.592 151.272 146.592C151.699 146.592 152.099 146.491 152.472 146.288C152.856 146.075 153.117 145.797 153.256 145.456L155.096 145.968C154.893 146.395 154.6 146.773 154.216 147.104C153.843 147.435 153.4 147.696 152.888 147.888C152.376 148.069 151.811 148.16 151.192 148.16ZM149 143.136H153.384C153.341 142.709 153.219 142.341 153.016 142.032C152.824 141.712 152.568 141.467 152.248 141.296C151.928 141.115 151.571 141.024 151.176 141.024C150.792 141.024 150.44 141.115 150.12 141.296C149.811 141.467 149.555 141.712 149.352 142.032C149.16 142.341 149.043 142.709 149 143.136ZM161.828 147.568C161.647 147.643 161.428 147.728 161.172 147.824C160.916 147.92 160.639 147.995 160.34 148.048C160.052 148.112 159.759 148.144 159.46 148.144C159.065 148.144 158.703 148.075 158.372 147.936C158.041 147.797 157.775 147.579 157.572 147.28C157.38 146.971 157.284 146.571 157.284 146.08V141.264H156.18V139.616H157.284V136.896H159.428V139.616H161.188V141.264H159.428V145.36C159.439 145.648 159.519 145.856 159.668 145.984C159.817 146.112 160.004 146.176 160.228 146.176C160.452 146.176 160.671 146.139 160.884 146.064C161.097 145.989 161.268 145.925 161.396 145.872L161.828 147.568ZM162.945 148V139.616H165.089V148H162.945ZM162.945 138.448V136.32H165.089V138.448H162.945ZM174.815 148H172.671V143.296C172.671 142.624 172.554 142.133 172.319 141.824C172.084 141.515 171.759 141.36 171.343 141.36C171.055 141.36 170.762 141.435 170.463 141.584C170.175 141.733 169.914 141.941 169.679 142.208C169.444 142.464 169.274 142.763 169.167 143.104V148H167.023V139.616H168.959V141.168C169.172 140.805 169.444 140.501 169.775 140.256C170.106 140 170.484 139.808 170.911 139.68C171.348 139.541 171.807 139.472 172.287 139.472C172.81 139.472 173.236 139.568 173.567 139.76C173.908 139.941 174.164 140.192 174.335 140.512C174.516 140.821 174.639 141.173 174.703 141.568C174.778 141.963 174.815 142.363 174.815 142.768V148ZM179.959 148.048C179.404 148.048 178.892 147.941 178.423 147.728C177.964 147.504 177.564 147.195 177.223 146.8C176.892 146.405 176.636 145.952 176.455 145.44C176.274 144.928 176.183 144.384 176.183 143.808C176.183 143.2 176.279 142.635 176.471 142.112C176.663 141.589 176.93 141.131 177.271 140.736C177.623 140.331 178.034 140.021 178.503 139.808C178.983 139.584 179.511 139.472 180.087 139.472C180.738 139.472 181.308 139.621 181.799 139.92C182.29 140.208 182.695 140.597 183.015 141.088V139.616H184.887V147.6C184.887 148.432 184.684 149.141 184.279 149.728C183.884 150.325 183.335 150.779 182.631 151.088C181.927 151.408 181.127 151.568 180.231 151.568C179.324 151.568 178.556 151.413 177.927 151.104C177.298 150.805 176.759 150.379 176.311 149.824L177.479 148.688C177.799 149.083 178.199 149.392 178.679 149.616C179.17 149.84 179.687 149.952 180.231 149.952C180.69 149.952 181.106 149.867 181.479 149.696C181.863 149.536 182.167 149.28 182.391 148.928C182.626 148.587 182.743 148.144 182.743 147.6V146.544C182.466 147.024 182.071 147.397 181.559 147.664C181.058 147.92 180.524 148.048 179.959 148.048ZM180.679 146.336C180.914 146.336 181.138 146.299 181.351 146.224C181.564 146.149 181.762 146.048 181.943 145.92C182.124 145.792 182.284 145.643 182.423 145.472C182.562 145.291 182.668 145.109 182.743 144.928V142.928C182.615 142.597 182.434 142.309 182.199 142.064C181.975 141.819 181.719 141.632 181.431 141.504C181.154 141.365 180.86 141.296 180.551 141.296C180.22 141.296 179.922 141.365 179.655 141.504C179.388 141.643 179.159 141.84 178.967 142.096C178.775 142.341 178.626 142.619 178.519 142.928C178.423 143.227 178.375 143.541 178.375 143.872C178.375 144.213 178.434 144.533 178.551 144.832C178.668 145.131 178.828 145.392 179.031 145.616C179.244 145.84 179.49 146.016 179.767 146.144C180.055 146.272 180.359 146.336 180.679 146.336ZM190.872 148V136.64H195.896C196.418 136.64 196.898 136.747 197.336 136.96C197.784 137.173 198.168 137.461 198.488 137.824C198.818 138.187 199.069 138.592 199.24 139.04C199.421 139.488 199.512 139.947 199.512 140.416C199.512 140.896 199.426 141.36 199.256 141.808C199.096 142.245 198.861 142.629 198.552 142.96C198.242 143.291 197.88 143.547 197.464 143.728L200.056 148H197.624L195.288 144.192H193.08V148H190.872ZM193.08 142.256H195.848C196.125 142.256 196.37 142.176 196.584 142.016C196.797 141.845 196.968 141.621 197.096 141.344C197.224 141.067 197.288 140.757 197.288 140.416C197.288 140.053 197.213 139.739 197.064 139.472C196.914 139.195 196.722 138.976 196.488 138.816C196.264 138.656 196.018 138.576 195.752 138.576H193.08V142.256ZM204.911 148.16C204.239 148.16 203.631 148.048 203.087 147.824C202.543 147.589 202.079 147.275 201.695 146.88C201.311 146.475 201.012 146.016 200.799 145.504C200.596 144.981 200.495 144.432 200.495 143.856C200.495 143.056 200.671 142.325 201.023 141.664C201.386 141.003 201.898 140.475 202.559 140.08C203.231 139.675 204.02 139.472 204.927 139.472C205.844 139.472 206.628 139.675 207.279 140.08C207.93 140.475 208.426 141.003 208.767 141.664C209.119 142.315 209.295 143.019 209.295 143.776C209.295 143.904 209.29 144.037 209.279 144.176C209.268 144.304 209.258 144.411 209.247 144.496H202.767C202.81 144.923 202.932 145.296 203.135 145.616C203.348 145.936 203.615 146.181 203.935 146.352C204.266 146.512 204.618 146.592 204.991 146.592C205.418 146.592 205.818 146.491 206.191 146.288C206.575 146.075 206.836 145.797 206.975 145.456L208.815 145.968C208.612 146.395 208.319 146.773 207.935 147.104C207.562 147.435 207.119 147.696 206.607 147.888C206.095 148.069 205.53 148.16 204.911 148.16ZM202.719 143.136H207.103C207.06 142.709 206.938 142.341 206.735 142.032C206.543 141.712 206.287 141.467 205.967 141.296C205.647 141.115 205.29 141.024 204.895 141.024C204.511 141.024 204.159 141.115 203.839 141.296C203.53 141.467 203.274 141.712 203.071 142.032C202.879 142.341 202.762 142.709 202.719 143.136ZM213.769 148.16C213.236 148.16 212.745 148.048 212.297 147.824C211.849 147.589 211.46 147.275 211.129 146.88C210.798 146.485 210.542 146.021 210.361 145.488C210.19 144.955 210.105 144.389 210.105 143.792C210.105 143.184 210.201 142.619 210.393 142.096C210.596 141.573 210.873 141.115 211.225 140.72C211.577 140.325 211.993 140.021 212.473 139.808C212.953 139.584 213.47 139.472 214.025 139.472C214.665 139.472 215.23 139.621 215.721 139.92C216.212 140.208 216.612 140.592 216.921 141.072V139.616H218.793V151.408H216.649V146.528C216.009 147.616 215.049 148.16 213.769 148.16ZM214.569 146.336C214.878 146.336 215.156 146.277 215.401 146.16C215.657 146.043 215.886 145.883 216.089 145.68C216.302 145.467 216.489 145.227 216.649 144.96V142.976C216.596 142.741 216.494 142.523 216.345 142.32C216.206 142.117 216.036 141.941 215.833 141.792C215.641 141.632 215.433 141.509 215.209 141.424C214.985 141.339 214.761 141.296 214.537 141.296C214.206 141.296 213.902 141.365 213.625 141.504C213.358 141.643 213.124 141.835 212.921 142.08C212.718 142.315 212.564 142.587 212.457 142.896C212.35 143.195 212.297 143.515 212.297 143.856C212.297 144.315 212.393 144.731 212.585 145.104C212.777 145.477 213.044 145.776 213.385 146C213.726 146.224 214.121 146.336 214.569 146.336ZM220.662 144.864V139.616H222.806V144.4C222.806 145.04 222.923 145.525 223.158 145.856C223.392 146.176 223.739 146.336 224.198 146.336C224.475 146.336 224.747 146.283 225.014 146.176C225.291 146.059 225.542 145.888 225.766 145.664C226 145.44 226.198 145.157 226.358 144.816V139.616H228.502V145.6C228.502 145.824 228.539 145.984 228.614 146.08C228.699 146.176 228.832 146.235 229.014 146.256V148C228.8 148.032 228.619 148.053 228.47 148.064C228.331 148.085 228.203 148.096 228.086 148.096C227.702 148.096 227.387 148.011 227.142 147.84C226.907 147.659 226.768 147.413 226.726 147.104L226.678 146.432C226.304 146.997 225.824 147.429 225.238 147.728C224.651 148.016 224.006 148.16 223.302 148.16C222.438 148.16 221.782 147.883 221.334 147.328C220.886 146.763 220.662 145.941 220.662 144.864ZM234.52 148.16C233.848 148.16 233.24 148.048 232.696 147.824C232.152 147.589 231.688 147.275 231.304 146.88C230.92 146.475 230.622 146.016 230.408 145.504C230.206 144.981 230.104 144.432 230.104 143.856C230.104 143.056 230.28 142.325 230.632 141.664C230.995 141.003 231.507 140.475 232.168 140.08C232.84 139.675 233.63 139.472 234.536 139.472C235.454 139.472 236.238 139.675 236.888 140.08C237.539 140.475 238.035 141.003 238.376 141.664C238.728 142.315 238.904 143.019 238.904 143.776C238.904 143.904 238.899 144.037 238.888 144.176C238.878 144.304 238.867 144.411 238.856 144.496H232.376C232.419 144.923 232.542 145.296 232.744 145.616C232.958 145.936 233.224 146.181 233.544 146.352C233.875 146.512 234.227 146.592 234.6 146.592C235.027 146.592 235.427 146.491 235.8 146.288C236.184 146.075 236.446 145.797 236.584 145.456L238.424 145.968C238.222 146.395 237.928 146.773 237.544 147.104C237.171 147.435 236.728 147.696 236.216 147.888C235.704 148.069 235.139 148.16 234.52 148.16ZM232.328 143.136H236.712C236.67 142.709 236.547 142.341 236.344 142.032C236.152 141.712 235.896 141.467 235.576 141.296C235.256 141.115 234.899 141.024 234.504 141.024C234.12 141.024 233.768 141.115 233.448 141.296C233.139 141.467 232.883 141.712 232.68 142.032C232.488 142.341 232.371 142.709 232.328 143.136ZM243.298 148.16C242.584 148.16 241.901 148.043 241.25 147.808C240.6 147.573 240.04 147.227 239.57 146.768L240.338 145.376C240.84 145.781 241.33 146.08 241.81 146.272C242.301 146.464 242.77 146.56 243.218 146.56C243.634 146.56 243.965 146.485 244.21 146.336C244.466 146.187 244.594 145.963 244.594 145.664C244.594 145.461 244.525 145.307 244.386 145.2C244.248 145.083 244.045 144.981 243.778 144.896C243.522 144.811 243.208 144.715 242.834 144.608C242.216 144.405 241.698 144.208 241.282 144.016C240.866 143.824 240.552 143.584 240.338 143.296C240.136 142.997 240.034 142.619 240.034 142.16C240.034 141.605 240.173 141.131 240.45 140.736C240.738 140.331 241.133 140.016 241.634 139.792C242.146 139.568 242.744 139.456 243.426 139.456C244.024 139.456 244.589 139.552 245.122 139.744C245.656 139.925 246.141 140.224 246.578 140.64L245.714 142C245.288 141.669 244.882 141.429 244.498 141.28C244.114 141.12 243.725 141.04 243.33 141.04C243.106 141.04 242.893 141.067 242.69 141.12C242.498 141.173 242.338 141.264 242.21 141.392C242.093 141.509 242.034 141.68 242.034 141.904C242.034 142.107 242.088 142.267 242.194 142.384C242.312 142.491 242.482 142.587 242.706 142.672C242.941 142.757 243.224 142.853 243.554 142.96C244.226 143.152 244.792 143.349 245.25 143.552C245.72 143.755 246.072 144.005 246.306 144.304C246.541 144.592 246.658 144.992 246.658 145.504C246.658 146.336 246.354 146.987 245.746 147.456C245.138 147.925 244.322 148.16 243.298 148.16ZM253.094 147.568C252.912 147.643 252.694 147.728 252.438 147.824C252.182 147.92 251.904 147.995 251.606 148.048C251.318 148.112 251.024 148.144 250.726 148.144C250.331 148.144 249.968 148.075 249.638 147.936C249.307 147.797 249.04 147.579 248.838 147.28C248.646 146.971 248.55 146.571 248.55 146.08V141.264H247.446V139.616H248.55V136.896H250.694V139.616H252.454V141.264H250.694V145.36C250.704 145.648 250.784 145.856 250.934 145.984C251.083 146.112 251.27 146.176 251.494 146.176C251.718 146.176 251.936 146.139 252.15 146.064C252.363 145.989 252.534 145.925 252.662 145.872L253.094 147.568Z" fill="white"/>
<g clip-path="url(#clip0_779_1988)">
<path d="M162.721 108.683C162.389 109.944 162.14 111.223 161.974 112.518C161.808 113.812 161.691 115.141 161.625 116.502C157.375 116.004 153.324 115.008 149.473 113.514C145.621 112.02 142.052 110.11 138.765 107.786C135.478 105.462 132.489 102.772 129.8 99.7178C127.11 96.6631 124.819 93.3428 122.927 89.7568C121.034 86.1709 119.573 82.3857 118.544 78.4014C117.515 74.417 117 70.2832 117 66C117 61.3184 117.598 56.8027 118.793 52.4531C119.988 48.1035 121.698 44.0361 123.923 40.251C126.147 36.4658 128.804 33.0293 131.892 29.9414C134.979 26.8535 138.433 24.1973 142.251 21.9727C146.069 19.748 150.12 18.0381 154.403 16.8428C158.687 15.6475 163.219 15.0332 168 15C172.682 15 177.181 15.5977 181.497 16.793C185.813 17.9883 189.881 19.7148 193.699 21.9727C197.518 24.2305 200.954 26.8867 204.009 29.9414C207.063 32.9961 209.736 36.4492 212.027 40.3008C214.318 44.1523 216.028 48.2031 217.157 52.4531C218.286 56.7031 218.9 61.2188 219 66H215.464C214.999 65.2363 214.518 64.4893 214.02 63.7588C213.521 63.0283 212.94 62.3311 212.276 61.667C212.077 58.7783 211.562 55.9727 210.732 53.25H149.722C149.456 55.375 149.257 57.4834 149.124 59.5752C148.991 61.667 148.908 63.8086 148.875 66C148.875 68.1582 148.941 70.2832 149.074 72.375C149.207 74.4668 149.423 76.5918 149.722 78.75H168C168 79.8125 168.083 80.875 168.249 81.9375C168.415 83 168.631 84.0625 168.896 85.125H150.817C151.216 87.0176 151.747 89.0928 152.411 91.3506C153.075 93.6084 153.905 95.8164 154.901 97.9746C155.897 100.133 157.043 102.158 158.338 104.051C159.633 105.943 161.094 107.487 162.721 108.683ZM208.292 46.875C206.997 44.1855 205.47 41.6621 203.71 39.3047C201.95 36.9473 199.958 34.7891 197.733 32.8301C195.509 30.8711 193.151 29.1279 190.661 27.6006C188.171 26.0732 185.481 24.8281 182.593 23.8652C183.788 25.5254 184.851 27.2852 185.78 29.1445C186.71 31.0039 187.557 32.9131 188.32 34.8721C189.084 36.8311 189.731 38.8232 190.263 40.8486C190.794 42.874 191.259 44.8828 191.657 46.875H208.292ZM168 21.375C166.34 21.375 164.812 21.8232 163.418 22.7197C162.023 23.6162 160.729 24.7949 159.533 26.2559C158.338 27.7168 157.275 29.3604 156.346 31.1865C155.416 33.0127 154.569 34.8887 153.806 36.8145C153.042 38.7402 152.428 40.5664 151.963 42.293C151.498 44.0195 151.116 45.5469 150.817 46.875H185.183C184.917 45.5801 184.535 44.0527 184.037 42.293C183.539 40.5332 182.925 38.707 182.194 36.8145C181.464 34.9219 180.634 33.0625 179.704 31.2363C178.774 29.4102 177.712 27.75 176.517 26.2559C175.321 24.7617 174.01 23.583 172.582 22.7197C171.154 21.8564 169.627 21.4082 168 21.375ZM153.457 23.8154C150.635 24.7783 147.945 26.0068 145.389 27.501C142.832 28.9951 140.458 30.7383 138.267 32.7305C136.075 34.7227 134.083 36.8975 132.29 39.2549C130.497 41.6123 128.97 44.1523 127.708 46.875H144.343C144.708 45.0488 145.156 43.1064 145.688 41.0479C146.219 38.9893 146.883 36.9307 147.68 34.8721C148.477 32.8135 149.34 30.8379 150.27 28.9453C151.199 27.0527 152.262 25.3428 153.457 23.8154ZM123.375 66C123.375 70.416 123.989 74.666 125.218 78.75H143.297C143.031 76.625 142.832 74.5166 142.699 72.4248C142.566 70.333 142.5 68.1914 142.5 66C142.5 63.8418 142.566 61.7168 142.699 59.625C142.832 57.5332 143.031 55.4082 143.297 53.25H125.218C123.989 57.334 123.375 61.584 123.375 66ZM127.608 85.125C128.903 87.8145 130.431 90.3379 132.19 92.6953C133.95 95.0527 135.942 97.2275 138.167 99.2197C140.392 101.212 142.782 102.938 145.339 104.399C147.896 105.86 150.585 107.105 153.407 108.135C152.212 106.475 151.149 104.715 150.22 102.855C149.29 100.996 148.443 99.0869 147.68 97.1279C146.916 95.1689 146.269 93.1768 145.737 91.1514C145.206 89.126 144.725 87.1172 144.293 85.125H127.608ZM204.756 94.1396C206.914 95.2354 208.873 96.5801 210.633 98.1738C212.393 99.7676 213.887 101.561 215.115 103.553C216.344 105.545 217.307 107.67 218.004 109.928C218.701 112.186 219.033 114.543 219 117H212.625C212.625 114.377 212.127 111.903 211.131 109.579C210.135 107.255 208.773 105.229 207.047 103.503C205.32 101.776 203.278 100.398 200.921 99.3691C198.563 98.3398 196.09 97.8418 193.5 97.875C190.844 97.875 188.37 98.373 186.079 99.3691C183.788 100.365 181.763 101.727 180.003 103.453C178.243 105.18 176.865 107.222 175.869 109.579C174.873 111.937 174.375 114.41 174.375 117H168C168 114.576 168.332 112.235 168.996 109.978C169.66 107.72 170.606 105.578 171.835 103.553C173.063 101.527 174.558 99.7344 176.317 98.1738C178.077 96.6133 180.036 95.2686 182.194 94.1396C179.704 92.3467 177.778 90.1055 176.417 87.416C175.056 84.7266 174.375 81.8379 174.375 78.75C174.375 76.127 174.873 73.6533 175.869 71.3291C176.865 69.0049 178.227 66.9795 179.953 65.2529C181.68 63.5264 183.705 62.1484 186.029 61.1191C188.354 60.0898 190.844 59.5918 193.5 59.625C196.123 59.625 198.597 60.123 200.921 61.1191C203.245 62.1152 205.271 63.4766 206.997 65.2031C208.724 66.9297 210.102 68.9717 211.131 71.3291C212.16 73.6865 212.658 76.1602 212.625 78.75C212.625 81.8047 211.944 84.6768 210.583 87.3662C209.222 90.0557 207.279 92.3135 204.756 94.1396ZM193.5 91.5C195.26 91.5 196.903 91.168 198.431 90.5039C199.958 89.8398 201.319 88.9268 202.515 87.7646C203.71 86.6025 204.623 85.2578 205.254 83.7305C205.885 82.2031 206.217 80.543 206.25 78.75C206.25 76.9902 205.918 75.3467 205.254 73.8193C204.59 72.292 203.677 70.9307 202.515 69.7354C201.353 68.54 200.008 67.627 198.48 66.9961C196.953 66.3652 195.293 66.0332 193.5 66C191.74 66 190.097 66.332 188.569 66.9961C187.042 67.6602 185.681 68.5732 184.485 69.7354C183.29 70.8975 182.377 72.2422 181.746 73.7695C181.115 75.2969 180.783 76.957 180.75 78.75C180.75 80.5098 181.082 82.1533 181.746 83.6807C182.41 85.208 183.323 86.5693 184.485 87.7646C185.647 88.96 186.992 89.873 188.52 90.5039C190.047 91.1348 191.707 91.4668 193.5 91.5Z" fill="white"/>
</g>
<defs>
<linearGradient id="paint0_linear_779_1988" x1="187" y1="-217.5" x2="186.238" y2="210.784" gradientUnits="userSpaceOnUse">
<stop stop-color="white"/>
<stop offset="1" stop-color="#9774F0"/>
</linearGradient>
<clipPath id="clip0_779_1988">
<rect width="102" height="102" fill="white" transform="translate(117 15)"/>
</clipPath>
</defs>
</svg>
