<svg width="18" height="24" viewBox="0 0 18 24" fill="none" xmlns="http://www.w3.org/2000/svg">
<path d="M15.5 11H13.065L12.714 8.19C12.559 6.94102 11.492 6 10.234 6H7.76502C6.50703 6 5.44002 6.94102 5.28402 8.19L4.93302 11H2.50002C1.397 11 0.5 11.897 0.5 13C0.5 14.103 1.397 15 2.50002 15H2.552L3.503 23.5551C3.53098 23.8091 3.74502 24 4.00002 24H14C14.255 24 14.469 23.809 14.497 23.5551L15.448 15H15.5C16.603 15 17.5 14.103 17.5 13C17.5 11.897 16.603 11 15.5 11ZM6.27603 8.31398C6.37002 7.56497 7.01005 6.99998 7.76502 6.99998H10.234C10.989 6.99998 11.629 7.56497 11.723 8.31398L12.059 11H5.94003L6.27603 8.31398ZM13.552 23H4.44805L3.55902 15H14.442L13.552 23ZM15.5 14H2.50002C1.949 14 1.50003 13.551 1.50003 13C1.50003 12.449 1.94905 12 2.50002 12H15.5C16.051 12 16.5 12.449 16.5 13C16.5 13.551 16.051 14 15.5 14Z" fill="#321B48"/>
<path d="M8.99998 5.00002C10.378 5.00002 11.5 3.87802 11.5 2.50003C11.5 1.12205 10.378 0 8.99998 0C7.622 0 6.5 1.122 6.5 2.49998C6.5 3.87797 7.622 5.00002 8.99998 5.00002ZM8.99998 0.999984C9.827 0.999984 10.5 1.67297 10.5 2.49998C10.5 3.327 9.827 3.99998 8.99998 3.99998C8.17297 3.99998 7.49998 3.327 7.49998 2.49998C7.49998 1.67302 8.17297 0.999984 8.99998 0.999984Z" fill="#321B48"/>
</svg>
