<svg width="336" height="168" viewBox="0 0 336 168" fill="none" xmlns="http://www.w3.org/2000/svg">
<rect width="335" height="168" rx="8" fill="url(#paint0_linear_785_2001)"/>
<g style="mix-blend-mode:soft-light" opacity="0.1">
<g clip-path="url(#clip0_785_2001)">
<path d="M209.585 2.6085L166.129 83.6985" stroke="white" stroke-width="2"/>
</g>
<g clip-path="url(#clip1_785_2001)">
<path d="M230.571 6.03826L171.88 76.8854" stroke="white" stroke-width="2"/>
</g>
<g clip-path="url(#clip2_785_2001)">
<path d="M250.517 10.826L180.971 71.0543" stroke="white" stroke-width="2"/>
</g>
<g clip-path="url(#clip3_785_2001)">
<path d="M269.074 16.899L191.994 67.1254" stroke="white" stroke-width="2"/>
</g>
<g clip-path="url(#clip4_785_2001)">
<path d="M285.913 24.1629L203.626 65.3068" stroke="white" stroke-width="2"/>
</g>
<g clip-path="url(#clip5_785_2001)">
<path d="M300.729 32.5027L214.833 65.4577" stroke="white" stroke-width="2"/>
</g>
<g clip-path="url(#clip6_785_2001)">
<path d="M313.24 41.7817L224.85 67.298" stroke="white" stroke-width="2"/>
</g>
<g clip-path="url(#clip7_785_2001)">
<path d="M323.195 51.8368L233.107 70.4948" stroke="white" stroke-width="2"/>
</g>
<g clip-path="url(#clip8_785_2001)">
<path d="M330.389 62.4694L239.203 74.686" stroke="white" stroke-width="2"/>
</g>
<g clip-path="url(#clip9_785_2001)">
<path d="M334.668 73.4385L242.867 79.4815" stroke="white" stroke-width="2"/>
</g>
<g clip-path="url(#clip10_785_2001)">
<path d="M335.999 84.4799L243.999 84.4799" stroke="white" stroke-width="2"/>
</g>
<g clip-path="url(#clip11_785_2001)">
<path d="M334.457 95.3669L242.656 89.3239" stroke="white" stroke-width="2"/>
</g>
<g clip-path="url(#clip12_785_2001)">
<path d="M330.163 105.951L238.978 93.7342" stroke="white" stroke-width="2"/>
</g>
<g clip-path="url(#clip13_785_2001)">
<path d="M323.226 116.127L233.137 97.4695" stroke="white" stroke-width="2"/>
</g>
<g clip-path="url(#clip14_785_2001)">
<path d="M313.744 125.782L225.353 100.265" stroke="white" stroke-width="2"/>
</g>
<g clip-path="url(#clip15_785_2001)">
<path d="M301.837 134.774L215.942 101.819" stroke="white" stroke-width="2"/>
</g>
<g clip-path="url(#clip16_785_2001)">
<path d="M287.672 142.957L205.385 101.813" stroke="white" stroke-width="2"/>
</g>
<g clip-path="url(#clip17_785_2001)">
<path d="M271.469 150.182L194.389 99.9556" stroke="white" stroke-width="2"/>
</g>
<g clip-path="url(#clip18_785_2001)">
<path d="M253.482 156.318L183.937 96.0897" stroke="white" stroke-width="2"/>
</g>
<g clip-path="url(#clip19_785_2001)">
<path d="M234.008 161.25L175.316 90.4027" stroke="white" stroke-width="2"/>
</g>
<g clip-path="url(#clip20_785_2001)">
<path d="M213.376 164.884L169.92 83.7938" stroke="white" stroke-width="2"/>
</g>
<g clip-path="url(#clip21_785_2001)">
<path d="M191.932 167.149L168.506 78.1817" stroke="white" stroke-width="2"/>
</g>
<g clip-path="url(#clip22_785_2001)">
<path d="M170.039 168L170.039 75.9999" stroke="white" stroke-width="2"/>
</g>
<g clip-path="url(#clip23_785_2001)">
<path d="M148.074 167.413L171.5 78.4455" stroke="white" stroke-width="2"/>
</g>
<g clip-path="url(#clip24_785_2001)">
<path d="M126.411 165.392L169.867 84.3015" stroke="white" stroke-width="2"/>
</g>
<g clip-path="url(#clip25_785_2001)">
<path d="M105.428 161.962L164.119 91.1146" stroke="white" stroke-width="2"/>
</g>
<g clip-path="url(#clip26_785_2001)">
<path d="M85.4814 157.174L155.027 96.9456" stroke="white" stroke-width="2"/>
</g>
<g clip-path="url(#clip27_785_2001)">
<path d="M66.9258 151.101L144.006 100.875" stroke="white" stroke-width="2"/>
</g>
<g clip-path="url(#clip28_785_2001)">
<path d="M50.085 143.837L132.372 102.693" stroke="white" stroke-width="2"/>
</g>
<g clip-path="url(#clip29_785_2001)">
<path d="M35.2715 135.497L121.167 102.542" stroke="white" stroke-width="2"/>
</g>
<g clip-path="url(#clip30_785_2001)">
<path d="M22.7607 126.218L111.151 100.702" stroke="white" stroke-width="2"/>
</g>
<g clip-path="url(#clip31_785_2001)">
<path d="M12.8027 116.163L102.891 97.5053" stroke="white" stroke-width="2"/>
</g>
<g clip-path="url(#clip32_785_2001)">
<path d="M5.61133 105.531L96.7966 93.314" stroke="white" stroke-width="2"/>
</g>
<g clip-path="url(#clip33_785_2001)">
<path d="M1.33203 94.5615L93.1334 88.5185" stroke="white" stroke-width="2"/>
</g>
<g clip-path="url(#clip34_785_2001)">
<path d="M0 83.52L92 83.52" stroke="white" stroke-width="2"/>
</g>
<g clip-path="url(#clip35_785_2001)">
<path d="M1.54199 72.6331L93.3433 78.6761" stroke="white" stroke-width="2"/>
</g>
<g clip-path="url(#clip36_785_2001)">
<path d="M5.83594 62.0491L97.0212 74.2656" stroke="white" stroke-width="2"/>
</g>
<g clip-path="url(#clip37_785_2001)">
<path d="M12.7734 51.8726L102.862 70.5306" stroke="white" stroke-width="2"/>
</g>
<g clip-path="url(#clip38_785_2001)">
<path d="M22.2549 42.2185L110.646 67.7348" stroke="white" stroke-width="2"/>
</g>
<g clip-path="url(#clip39_785_2001)">
<path d="M34.1631 33.2255L120.058 66.1806" stroke="white" stroke-width="2"/>
</g>
<g clip-path="url(#clip40_785_2001)">
<path d="M48.3252 25.0434L130.612 66.1872" stroke="white" stroke-width="2"/>
</g>
<g clip-path="url(#clip41_785_2001)">
<path d="M64.5312 17.8178L141.611 68.0443" stroke="white" stroke-width="2"/>
</g>
<g clip-path="url(#clip42_785_2001)">
<path d="M82.5176 11.6819L152.063 71.9103" stroke="white" stroke-width="2"/>
</g>
<g clip-path="url(#clip43_785_2001)">
<path d="M101.989 6.7502L160.681 77.5974" stroke="white" stroke-width="2"/>
</g>
<g clip-path="url(#clip44_785_2001)">
<path d="M122.624 3.11616L166.08 84.2062" stroke="white" stroke-width="2"/>
</g>
<g clip-path="url(#clip45_785_2001)">
<path d="M144.068 0.850586L167.494 89.8183" stroke="white" stroke-width="2"/>
</g>
<g clip-path="url(#clip46_785_2001)">
<path d="M165.959 9.91821e-05V92.0001" stroke="white" stroke-width="2"/>
</g>
<g clip-path="url(#clip47_785_2001)">
<path d="M187.925 0.586906L164.499 89.5546" stroke="white" stroke-width="2"/>
</g>
</g>
<path d="M78.352 136.64L81.424 145.376L84.464 136.64H86.784L82.48 148H80.352L76.032 136.64H78.352ZM87.7885 148V139.616H89.9325V148H87.7885ZM87.7885 138.448V136.32H89.9325V138.448H87.7885ZM95.7546 148.16C95.0826 148.16 94.4746 148.048 93.9306 147.824C93.3866 147.589 92.9226 147.275 92.5386 146.88C92.1546 146.475 91.856 146.016 91.6426 145.504C91.44 144.981 91.3386 144.432 91.3386 143.856C91.3386 143.056 91.5146 142.325 91.8666 141.664C92.2293 141.003 92.7413 140.475 93.4026 140.08C94.0746 139.675 94.864 139.472 95.7706 139.472C96.688 139.472 97.472 139.675 98.1226 140.08C98.7733 140.475 99.2693 141.003 99.6106 141.664C99.9626 142.315 100.139 143.019 100.139 143.776C100.139 143.904 100.133 144.037 100.123 144.176C100.112 144.304 100.101 144.411 100.091 144.496H93.6106C93.6533 144.923 93.776 145.296 93.9786 145.616C94.192 145.936 94.4586 146.181 94.7786 146.352C95.1093 146.512 95.4613 146.592 95.8346 146.592C96.2613 146.592 96.6613 146.491 97.0346 146.288C97.4186 146.075 97.68 145.797 97.8186 145.456L99.6586 145.968C99.456 146.395 99.1626 146.773 98.7786 147.104C98.4053 147.435 97.9626 147.696 97.4506 147.888C96.9386 148.069 96.3733 148.16 95.7546 148.16ZM93.5626 143.136H97.9466C97.904 142.709 97.7813 142.341 97.5786 142.032C97.3866 141.712 97.1306 141.467 96.8106 141.296C96.4906 141.115 96.1333 141.024 95.7386 141.024C95.3546 141.024 95.0026 141.115 94.6826 141.296C94.3733 141.467 94.1173 141.712 93.9146 142.032C93.7226 142.341 93.6053 142.709 93.5626 143.136ZM111.61 139.616H113.642L110.138 148H108.346L106.938 144.4L105.562 148H103.754L100.266 139.616H102.282L104.778 145.952L105.754 143.216L104.298 139.632H106.074L106.938 142.192L107.818 139.632H109.594L108.138 143.216L109.13 145.952L111.61 139.616ZM120.819 136.64H123.059L127.235 148H124.963L123.907 145.168H119.939L118.899 148H116.627L120.819 136.64ZM123.507 143.616L121.939 138.928L120.307 143.616H123.507ZM133.297 148.16C132.646 148.16 132.07 148.016 131.569 147.728C131.078 147.429 130.694 147.029 130.417 146.528V151.408H128.273V139.616H130.145V141.056C130.465 140.565 130.87 140.181 131.361 139.904C131.852 139.616 132.412 139.472 133.041 139.472C133.606 139.472 134.124 139.584 134.593 139.808C135.073 140.032 135.489 140.347 135.841 140.752C136.193 141.147 136.465 141.605 136.657 142.128C136.86 142.64 136.961 143.195 136.961 143.792C136.961 144.603 136.801 145.339 136.481 146C136.172 146.661 135.74 147.189 135.185 147.584C134.641 147.968 134.012 148.16 133.297 148.16ZM132.577 146.336C132.908 146.336 133.206 146.267 133.473 146.128C133.74 145.989 133.969 145.803 134.161 145.568C134.364 145.323 134.513 145.051 134.609 144.752C134.716 144.443 134.769 144.123 134.769 143.792C134.769 143.44 134.71 143.115 134.593 142.816C134.486 142.517 134.326 142.256 134.113 142.032C133.9 141.797 133.649 141.616 133.361 141.488C133.084 141.36 132.78 141.296 132.449 141.296C132.246 141.296 132.038 141.333 131.825 141.408C131.622 141.472 131.425 141.568 131.233 141.696C131.041 141.824 130.87 141.973 130.721 142.144C130.582 142.315 130.481 142.501 130.417 142.704V144.672C130.545 144.981 130.716 145.264 130.929 145.52C131.153 145.776 131.409 145.979 131.697 146.128C131.985 146.267 132.278 146.336 132.577 146.336ZM143.438 148.16C142.787 148.16 142.211 148.016 141.71 147.728C141.219 147.429 140.835 147.029 140.558 146.528V151.408H138.414V139.616H140.286V141.056C140.606 140.565 141.011 140.181 141.502 139.904C141.992 139.616 142.552 139.472 143.182 139.472C143.747 139.472 144.264 139.584 144.734 139.808C145.214 140.032 145.63 140.347 145.982 140.752C146.334 141.147 146.606 141.605 146.798 142.128C147 142.64 147.102 143.195 147.102 143.792C147.102 144.603 146.942 145.339 146.622 146C146.312 146.661 145.88 147.189 145.326 147.584C144.782 147.968 144.152 148.16 143.438 148.16ZM142.718 146.336C143.048 146.336 143.347 146.267 143.614 146.128C143.88 145.989 144.11 145.803 144.302 145.568C144.504 145.323 144.654 145.051 144.75 144.752C144.856 144.443 144.91 144.123 144.91 143.792C144.91 143.44 144.851 143.115 144.734 142.816C144.627 142.517 144.467 142.256 144.254 142.032C144.04 141.797 143.79 141.616 143.502 141.488C143.224 141.36 142.92 141.296 142.59 141.296C142.387 141.296 142.179 141.333 141.966 141.408C141.763 141.472 141.566 141.568 141.374 141.696C141.182 141.824 141.011 141.973 140.862 142.144C140.723 142.315 140.622 142.501 140.558 142.704V144.672C140.686 144.981 140.856 145.264 141.07 145.52C141.294 145.776 141.55 145.979 141.838 146.128C142.126 146.267 142.419 146.336 142.718 146.336ZM153.546 141.472C152.895 141.472 152.314 141.6 151.802 141.856C151.29 142.101 150.922 142.459 150.698 142.928V148H148.554V139.616H150.522V141.408C150.821 140.832 151.199 140.379 151.658 140.048C152.117 139.717 152.602 139.536 153.114 139.504C153.231 139.504 153.322 139.504 153.386 139.504C153.45 139.504 153.503 139.509 153.546 139.52V141.472ZM158.504 148.16C157.822 148.16 157.208 148.048 156.664 147.824C156.12 147.589 155.656 147.269 155.272 146.864C154.899 146.459 154.611 145.995 154.408 145.472C154.206 144.949 154.104 144.4 154.104 143.824C154.104 143.237 154.206 142.683 154.408 142.16C154.611 141.637 154.899 141.173 155.272 140.768C155.656 140.363 156.12 140.048 156.664 139.824C157.208 139.589 157.822 139.472 158.504 139.472C159.187 139.472 159.795 139.589 160.328 139.824C160.872 140.048 161.336 140.363 161.72 140.768C162.104 141.173 162.392 141.637 162.584 142.16C162.787 142.683 162.888 143.237 162.888 143.824C162.888 144.4 162.787 144.949 162.584 145.472C162.392 145.995 162.104 146.459 161.72 146.864C161.347 147.269 160.888 147.589 160.344 147.824C159.8 148.048 159.187 148.16 158.504 148.16ZM156.312 143.824C156.312 144.315 156.408 144.752 156.6 145.136C156.792 145.509 157.054 145.803 157.384 146.016C157.715 146.229 158.088 146.336 158.504 146.336C158.91 146.336 159.278 146.229 159.608 146.016C159.939 145.792 160.2 145.493 160.392 145.12C160.595 144.736 160.696 144.299 160.696 143.808C160.696 143.328 160.595 142.896 160.392 142.512C160.2 142.128 159.939 141.829 159.608 141.616C159.278 141.403 158.91 141.296 158.504 141.296C158.088 141.296 157.715 141.408 157.384 141.632C157.054 141.845 156.792 142.144 156.6 142.528C156.408 142.901 156.312 143.333 156.312 143.824ZM166.31 148L163.222 139.616H165.446L167.558 146.048L169.686 139.616H171.718L168.646 148H166.31ZM176.458 148.16C175.786 148.16 175.178 148.048 174.634 147.824C174.09 147.589 173.626 147.275 173.242 146.88C172.858 146.475 172.559 146.016 172.346 145.504C172.143 144.981 172.042 144.432 172.042 143.856C172.042 143.056 172.218 142.325 172.57 141.664C172.932 141.003 173.444 140.475 174.106 140.08C174.778 139.675 175.567 139.472 176.474 139.472C177.391 139.472 178.175 139.675 178.826 140.08C179.476 140.475 179.972 141.003 180.314 141.664C180.666 142.315 180.842 143.019 180.842 143.776C180.842 143.904 180.836 144.037 180.826 144.176C180.815 144.304 180.804 144.411 180.794 144.496H174.314C174.356 144.923 174.479 145.296 174.682 145.616C174.895 145.936 175.162 146.181 175.482 146.352C175.812 146.512 176.164 146.592 176.538 146.592C176.964 146.592 177.364 146.491 177.738 146.288C178.122 146.075 178.383 145.797 178.522 145.456L180.362 145.968C180.159 146.395 179.866 146.773 179.482 147.104C179.108 147.435 178.666 147.696 178.154 147.888C177.642 148.069 177.076 148.16 176.458 148.16ZM174.266 143.136H178.65C178.607 142.709 178.484 142.341 178.282 142.032C178.09 141.712 177.834 141.467 177.514 141.296C177.194 141.115 176.836 141.024 176.442 141.024C176.058 141.024 175.706 141.115 175.386 141.296C175.076 141.467 174.82 141.712 174.618 142.032C174.426 142.341 174.308 142.709 174.266 143.136ZM181.636 143.808C181.636 142.997 181.796 142.267 182.116 141.616C182.436 140.955 182.879 140.432 183.444 140.048C184.009 139.664 184.655 139.472 185.38 139.472C185.999 139.472 186.553 139.627 187.044 139.936C187.545 140.235 187.935 140.619 188.212 141.088V136.32H190.356V145.6C190.356 145.824 190.393 145.984 190.468 146.08C190.543 146.176 190.671 146.235 190.852 146.256V148C190.479 148.075 190.175 148.112 189.94 148.112C189.556 148.112 189.236 148.016 188.98 147.824C188.735 147.632 188.596 147.381 188.564 147.072L188.532 146.544C188.223 147.067 187.801 147.467 187.268 147.744C186.745 148.021 186.196 148.16 185.62 148.16C185.044 148.16 184.511 148.048 184.02 147.824C183.54 147.6 183.119 147.291 182.756 146.896C182.404 146.501 182.127 146.043 181.924 145.52C181.732 144.987 181.636 144.416 181.636 143.808ZM188.212 144.928V142.928C188.105 142.619 187.935 142.341 187.7 142.096C187.465 141.851 187.204 141.659 186.916 141.52C186.628 141.371 186.34 141.296 186.052 141.296C185.721 141.296 185.423 141.365 185.156 141.504C184.889 141.643 184.655 141.829 184.452 142.064C184.26 142.299 184.111 142.571 184.004 142.88C183.908 143.189 183.86 143.515 183.86 143.856C183.86 144.197 183.913 144.523 184.02 144.832C184.137 145.131 184.303 145.392 184.516 145.616C184.729 145.84 184.975 146.016 185.252 146.144C185.54 146.272 185.849 146.336 186.18 146.336C186.383 146.336 186.585 146.304 186.788 146.24C187.001 146.165 187.199 146.069 187.38 145.952C187.572 145.824 187.737 145.675 187.876 145.504C188.025 145.323 188.137 145.131 188.212 144.928ZM196.512 148V136.64H201.536C202.059 136.64 202.539 136.747 202.976 136.96C203.424 137.173 203.808 137.461 204.128 137.824C204.459 138.187 204.709 138.592 204.88 139.04C205.061 139.488 205.152 139.947 205.152 140.416C205.152 140.896 205.067 141.36 204.896 141.808C204.736 142.245 204.501 142.629 204.192 142.96C203.883 143.291 203.52 143.547 203.104 143.728L205.696 148H203.264L200.928 144.192H198.72V148H196.512ZM198.72 142.256H201.488C201.765 142.256 202.011 142.176 202.224 142.016C202.437 141.845 202.608 141.621 202.736 141.344C202.864 141.067 202.928 140.757 202.928 140.416C202.928 140.053 202.853 139.739 202.704 139.472C202.555 139.195 202.363 138.976 202.128 138.816C201.904 138.656 201.659 138.576 201.392 138.576H198.72V142.256ZM210.552 148.16C209.88 148.16 209.272 148.048 208.728 147.824C208.184 147.589 207.72 147.275 207.336 146.88C206.952 146.475 206.653 146.016 206.44 145.504C206.237 144.981 206.136 144.432 206.136 143.856C206.136 143.056 206.312 142.325 206.664 141.664C207.026 141.003 207.538 140.475 208.2 140.08C208.872 139.675 209.661 139.472 210.568 139.472C211.485 139.472 212.269 139.675 212.92 140.08C213.57 140.475 214.066 141.003 214.408 141.664C214.76 142.315 214.936 143.019 214.936 143.776C214.936 143.904 214.93 144.037 214.92 144.176C214.909 144.304 214.898 144.411 214.888 144.496H208.408C208.45 144.923 208.573 145.296 208.776 145.616C208.989 145.936 209.256 146.181 209.576 146.352C209.906 146.512 210.258 146.592 210.632 146.592C211.058 146.592 211.458 146.491 211.832 146.288C212.216 146.075 212.477 145.797 212.616 145.456L214.456 145.968C214.253 146.395 213.96 146.773 213.576 147.104C213.202 147.435 212.76 147.696 212.248 147.888C211.736 148.069 211.17 148.16 210.552 148.16ZM208.36 143.136H212.744C212.701 142.709 212.578 142.341 212.376 142.032C212.184 141.712 211.928 141.467 211.608 141.296C211.288 141.115 210.93 141.024 210.536 141.024C210.152 141.024 209.8 141.115 209.48 141.296C209.17 141.467 208.914 141.712 208.712 142.032C208.52 142.341 208.402 142.709 208.36 143.136ZM219.41 148.16C218.876 148.16 218.386 148.048 217.938 147.824C217.49 147.589 217.1 147.275 216.77 146.88C216.439 146.485 216.183 146.021 216.002 145.488C215.831 144.955 215.746 144.389 215.746 143.792C215.746 143.184 215.842 142.619 216.034 142.096C216.236 141.573 216.514 141.115 216.866 140.72C217.218 140.325 217.634 140.021 218.114 139.808C218.594 139.584 219.111 139.472 219.666 139.472C220.306 139.472 220.871 139.621 221.362 139.92C221.852 140.208 222.252 140.592 222.562 141.072V139.616H224.434V151.408H222.29V146.528C221.65 147.616 220.69 148.16 219.41 148.16ZM220.21 146.336C220.519 146.336 220.796 146.277 221.042 146.16C221.298 146.043 221.527 145.883 221.73 145.68C221.943 145.467 222.13 145.227 222.29 144.96V142.976C222.236 142.741 222.135 142.523 221.986 142.32C221.847 142.117 221.676 141.941 221.474 141.792C221.282 141.632 221.074 141.509 220.85 141.424C220.626 141.339 220.402 141.296 220.178 141.296C219.847 141.296 219.543 141.365 219.266 141.504C218.999 141.643 218.764 141.835 218.562 142.08C218.359 142.315 218.204 142.587 218.098 142.896C217.991 143.195 217.938 143.515 217.938 143.856C217.938 144.315 218.034 144.731 218.226 145.104C218.418 145.477 218.684 145.776 219.026 146C219.367 146.224 219.762 146.336 220.21 146.336ZM226.302 144.864V139.616H228.446V144.4C228.446 145.04 228.564 145.525 228.798 145.856C229.033 146.176 229.38 146.336 229.838 146.336C230.116 146.336 230.388 146.283 230.654 146.176C230.932 146.059 231.182 145.888 231.406 145.664C231.641 145.44 231.838 145.157 231.998 144.816V139.616H234.142V145.6C234.142 145.824 234.18 145.984 234.254 146.08C234.34 146.176 234.473 146.235 234.654 146.256V148C234.441 148.032 234.26 148.053 234.11 148.064C233.972 148.085 233.844 148.096 233.726 148.096C233.342 148.096 233.028 148.011 232.782 147.84C232.548 147.659 232.409 147.413 232.366 147.104L232.318 146.432C231.945 146.997 231.465 147.429 230.878 147.728C230.292 148.016 229.646 148.16 228.942 148.16C228.078 148.16 227.422 147.883 226.974 147.328C226.526 146.763 226.302 145.941 226.302 144.864ZM240.161 148.16C239.489 148.16 238.881 148.048 238.337 147.824C237.793 147.589 237.329 147.275 236.945 146.88C236.561 146.475 236.262 146.016 236.049 145.504C235.846 144.981 235.745 144.432 235.745 143.856C235.745 143.056 235.921 142.325 236.273 141.664C236.636 141.003 237.148 140.475 237.809 140.08C238.481 139.675 239.27 139.472 240.177 139.472C241.094 139.472 241.878 139.675 242.529 140.08C243.18 140.475 243.676 141.003 244.017 141.664C244.369 142.315 244.545 143.019 244.545 143.776C244.545 143.904 244.54 144.037 244.529 144.176C244.518 144.304 244.508 144.411 244.497 144.496H238.017C238.06 144.923 238.182 145.296 238.385 145.616C238.598 145.936 238.865 146.181 239.185 146.352C239.516 146.512 239.868 146.592 240.241 146.592C240.668 146.592 241.068 146.491 241.441 146.288C241.825 146.075 242.086 145.797 242.225 145.456L244.065 145.968C243.862 146.395 243.569 146.773 243.185 147.104C242.812 147.435 242.369 147.696 241.857 147.888C241.345 148.069 240.78 148.16 240.161 148.16ZM237.969 143.136H242.353C242.31 142.709 242.188 142.341 241.985 142.032C241.793 141.712 241.537 141.467 241.217 141.296C240.897 141.115 240.54 141.024 240.145 141.024C239.761 141.024 239.409 141.115 239.089 141.296C238.78 141.467 238.524 141.712 238.321 142.032C238.129 142.341 238.012 142.709 237.969 143.136ZM248.939 148.16C248.224 148.16 247.542 148.043 246.891 147.808C246.24 147.573 245.68 147.227 245.211 146.768L245.979 145.376C246.48 145.781 246.971 146.08 247.451 146.272C247.942 146.464 248.411 146.56 248.859 146.56C249.275 146.56 249.606 146.485 249.851 146.336C250.107 146.187 250.235 145.963 250.235 145.664C250.235 145.461 250.166 145.307 250.027 145.2C249.888 145.083 249.686 144.981 249.419 144.896C249.163 144.811 248.848 144.715 248.475 144.608C247.856 144.405 247.339 144.208 246.923 144.016C246.507 143.824 246.192 143.584 245.979 143.296C245.776 142.997 245.675 142.619 245.675 142.16C245.675 141.605 245.814 141.131 246.091 140.736C246.379 140.331 246.774 140.016 247.275 139.792C247.787 139.568 248.384 139.456 249.067 139.456C249.664 139.456 250.23 139.552 250.763 139.744C251.296 139.925 251.782 140.224 252.219 140.64L251.355 142C250.928 141.669 250.523 141.429 250.139 141.28C249.755 141.12 249.366 141.04 248.971 141.04C248.747 141.04 248.534 141.067 248.331 141.12C248.139 141.173 247.979 141.264 247.851 141.392C247.734 141.509 247.675 141.68 247.675 141.904C247.675 142.107 247.728 142.267 247.835 142.384C247.952 142.491 248.123 142.587 248.347 142.672C248.582 142.757 248.864 142.853 249.195 142.96C249.867 143.152 250.432 143.349 250.891 143.552C251.36 143.755 251.712 144.005 251.947 144.304C252.182 144.592 252.299 144.992 252.299 145.504C252.299 146.336 251.995 146.987 251.387 147.456C250.779 147.925 249.963 148.16 248.939 148.16ZM258.734 147.568C258.553 147.643 258.334 147.728 258.078 147.824C257.822 147.92 257.545 147.995 257.246 148.048C256.958 148.112 256.665 148.144 256.366 148.144C255.972 148.144 255.609 148.075 255.278 147.936C254.948 147.797 254.681 147.579 254.478 147.28C254.286 146.971 254.19 146.571 254.19 146.08V141.264H253.086V139.616H254.19V136.896H256.334V139.616H258.094V141.264H256.334V145.36C256.345 145.648 256.425 145.856 256.574 145.984C256.724 146.112 256.91 146.176 257.134 146.176C257.358 146.176 257.577 146.139 257.79 146.064C258.004 145.989 258.174 145.925 258.302 145.872L258.734 147.568Z" fill="white"/>
<path fill-rule="evenodd" clip-rule="evenodd" d="M168 108.5C144.527 108.5 125.5 89.4727 125.5 66C125.5 42.5273 144.527 23.5 168 23.5C191.473 23.5 210.5 42.5273 210.5 66C210.5 89.4727 191.473 108.5 168 108.5ZM168 103.4C177.919 103.4 187.432 99.4597 194.446 92.4458C201.46 85.4319 205.4 75.9191 205.4 66C205.4 56.0809 201.46 46.5681 194.446 39.5542C187.432 32.5403 177.919 28.6 168 28.6C158.081 28.6 148.568 32.5403 141.554 39.5542C134.54 46.5681 130.6 56.0809 130.6 66C130.6 75.9191 134.54 85.4319 141.554 92.4458C148.568 99.4597 158.081 103.4 168 103.4ZM163.019 76.8715L187.707 52.1875L191.311 55.7957L166.024 81.0832C165.227 81.88 164.146 82.3276 163.019 82.3276C161.892 82.3276 160.811 81.88 160.014 81.0832L146.75 67.8105L150.358 64.2022L163.023 76.8673L163.019 76.8715Z" fill="white"/>
<defs>
<linearGradient id="paint0_linear_785_2001" x1="195" y1="-227.22" x2="142.508" y2="160.694" gradientUnits="userSpaceOnUse">
<stop stop-color="white"/>
<stop offset="1" stop-color="#5939AB"/>
</linearGradient>
<clipPath id="clip0_785_2001">
<rect width="9.82346" height="184.108" fill="white" transform="matrix(0.991144 0.132789 -0.472346 0.881413 206.611 2.21013)"/>
</clipPath>
<clipPath id="clip1_785_2001">
<rect width="9.51027" height="201.553" fill="white" transform="matrix(0.979219 0.202805 -0.63795 0.770078 227.634 5.42985)"/>
</clipPath>
<clipPath id="clip2_785_2001">
<rect width="9.08593" height="222.242" fill="white" transform="matrix(0.960768 0.277352 -0.755927 0.654656 247.635 9.99397)"/>
</clipPath>
<clipPath id="clip3_785_2001">
<rect width="8.56532" height="244.135" fill="white" transform="matrix(0.933642 0.358207 -0.837824 0.54594 266.273 15.8243)"/>
</clipPath>
<clipPath id="clip4_785_2001">
<rect width="7.96889" height="265.63" fill="white" transform="matrix(0.894426 0.447216 -0.894426 0.447215 283.229 22.8213)"/>
</clipPath>
<clipPath id="clip5_785_2001">
<rect width="7.32406" height="285.511" fill="white" transform="matrix(0.837824 0.545941 -0.933643 0.358206 298.215 30.8649)"/>
</clipPath>
<clipPath id="clip6_785_2001">
<rect width="6.66726" height="302.864" fill="white" transform="matrix(0.755927 0.654656 -0.960769 0.277351 310.973 39.8177)"/>
</clipPath>
<clipPath id="clip7_785_2001">
<rect width="6.04659" height="317.009" fill="white" transform="matrix(0.637949 0.770079 -0.979219 0.202804 321.281 49.5266)"/>
</clipPath>
<clipPath id="clip8_785_2001">
<rect width="5.52324" height="327.449" fill="white" transform="matrix(0.472345 0.881414 -0.991144 0.132789 328.972 59.8251)"/>
</clipPath>
<clipPath id="clip9_785_2001">
<rect width="5.16719" height="333.844" fill="white" transform="matrix(0.254624 0.96704 -0.997841 0.0656843 333.904 70.5374)"/>
</clipPath>
<clipPath id="clip10_785_2001">
<rect width="5.04" height="335.998" fill="white" transform="translate(335.999 81.4799) rotate(90.0001)"/>
</clipPath>
<clipPath id="clip11_785_2001">
<rect width="5.16719" height="333.844" fill="white" transform="matrix(-0.254626 0.96704 -0.997841 -0.0656847 335.221 92.4658)"/>
</clipPath>
<clipPath id="clip12_785_2001">
<rect width="5.52325" height="327.449" fill="white" transform="matrix(-0.472346 0.881413 -0.991144 -0.132789 331.58 103.307)"/>
</clipPath>
<clipPath id="clip13_785_2001">
<rect width="6.0466" height="317.009" fill="white" transform="matrix(-0.63795 0.770078 -0.979219 -0.202804 325.14 113.817)"/>
</clipPath>
<clipPath id="clip14_785_2001">
<rect width="6.66727" height="302.864" fill="white" transform="matrix(-0.755927 0.654656 -0.960768 -0.277352 316.012 123.818)"/>
</clipPath>
<clipPath id="clip15_785_2001">
<rect width="7.32406" height="285.511" fill="white" transform="matrix(-0.837824 0.54594 -0.933642 -0.358207 304.351 133.137)"/>
</clipPath>
<clipPath id="clip16_785_2001">
<rect width="7.9689" height="265.63" fill="white" transform="matrix(-0.894426 0.447216 -0.894426 -0.447216 290.355 141.615)"/>
</clipPath>
<clipPath id="clip17_785_2001">
<rect width="8.56532" height="244.135" fill="white" transform="matrix(-0.933642 0.358207 -0.837824 -0.54594 274.27 149.107)"/>
</clipPath>
<clipPath id="clip18_785_2001">
<rect width="9.08593" height="222.242" fill="white" transform="matrix(-0.960769 0.277352 -0.755927 -0.654656 256.364 155.486)"/>
</clipPath>
<clipPath id="clip19_785_2001">
<rect width="9.51027" height="201.553" fill="white" transform="matrix(-0.979219 0.202804 -0.637949 -0.770078 236.945 160.641)"/>
</clipPath>
<clipPath id="clip20_785_2001">
<rect width="9.82346" height="184.108" fill="white" transform="matrix(-0.991144 0.132789 -0.472345 -0.881414 216.35 164.485)"/>
</clipPath>
<clipPath id="clip21_785_2001">
<rect width="10.0153" height="172.24" fill="white" transform="matrix(-0.997841 0.0656844 -0.254624 -0.96704 194.925 166.952)"/>
</clipPath>
<clipPath id="clip22_785_2001">
<rect width="10.0799" height="168" fill="white" transform="translate(173.039 168) rotate(-180)"/>
</clipPath>
<clipPath id="clip23_785_2001">
<rect width="10.0153" height="172.24" fill="white" transform="matrix(-0.997841 -0.0656846 0.254625 -0.96704 151.067 167.61)"/>
</clipPath>
<clipPath id="clip24_785_2001">
<rect width="9.82346" height="184.108" fill="white" transform="matrix(-0.991144 -0.132789 0.472346 -0.881413 129.385 165.79)"/>
</clipPath>
<clipPath id="clip25_785_2001">
<rect width="9.51027" height="201.553" fill="white" transform="matrix(-0.979219 -0.202804 0.63795 -0.770078 108.365 162.57)"/>
</clipPath>
<clipPath id="clip26_785_2001">
<rect width="9.08593" height="222.242" fill="white" transform="matrix(-0.960768 -0.277352 0.755927 -0.654656 88.3633 158.006)"/>
</clipPath>
<clipPath id="clip27_785_2001">
<rect width="8.56532" height="244.135" fill="white" transform="matrix(-0.933642 -0.358207 0.837824 -0.54594 69.7266 152.176)"/>
</clipPath>
<clipPath id="clip28_785_2001">
<rect width="7.96889" height="265.63" fill="white" transform="matrix(-0.894426 -0.447216 0.894426 -0.447216 52.7686 145.179)"/>
</clipPath>
<clipPath id="clip29_785_2001">
<rect width="7.32406" height="285.511" fill="white" transform="matrix(-0.837824 -0.54594 0.933642 -0.358207 37.7852 137.135)"/>
</clipPath>
<clipPath id="clip30_785_2001">
<rect width="6.66726" height="302.864" fill="white" transform="matrix(-0.755927 -0.654656 0.960769 -0.277352 25.0283 128.182)"/>
</clipPath>
<clipPath id="clip31_785_2001">
<rect width="6.04659" height="317.009" fill="white" transform="matrix(-0.63795 -0.770078 0.979219 -0.202804 14.7168 118.474)"/>
</clipPath>
<clipPath id="clip32_785_2001">
<rect width="5.52324" height="327.449" fill="white" transform="matrix(-0.472345 -0.881414 0.991144 -0.132789 7.02832 108.175)"/>
</clipPath>
<clipPath id="clip33_785_2001">
<rect width="5.16719" height="333.844" fill="white" transform="matrix(-0.254625 -0.96704 0.99784 -0.0656844 2.0957 97.4626)"/>
</clipPath>
<clipPath id="clip34_785_2001">
<rect width="5.04" height="335.998" fill="white" transform="translate(0 86.52) rotate(-90)"/>
</clipPath>
<clipPath id="clip35_785_2001">
<rect width="5.16719" height="333.844" fill="white" transform="matrix(0.254625 -0.96704 0.997841 0.0656845 0.77832 75.5342)"/>
</clipPath>
<clipPath id="clip36_785_2001">
<rect width="5.52324" height="327.449" fill="white" transform="matrix(0.472345 -0.881414 0.991144 0.132789 4.41895 64.6933)"/>
</clipPath>
<clipPath id="clip37_785_2001">
<rect width="6.0466" height="317.009" fill="white" transform="matrix(0.63795 -0.770078 0.979219 0.202804 10.8594 54.1828)"/>
</clipPath>
<clipPath id="clip38_785_2001">
<rect width="6.66727" height="302.864" fill="white" transform="matrix(0.755927 -0.654656 0.960769 0.277352 19.9873 44.1824)"/>
</clipPath>
<clipPath id="clip39_785_2001">
<rect width="7.32406" height="285.511" fill="white" transform="matrix(0.837824 -0.54594 0.933642 0.358207 31.6494 34.8634)"/>
</clipPath>
<clipPath id="clip40_785_2001">
<rect width="7.9689" height="265.63" fill="white" transform="matrix(0.894426 -0.447216 0.894426 0.447216 45.6416 26.385)"/>
</clipPath>
<clipPath id="clip41_785_2001">
<rect width="8.56532" height="244.135" fill="white" transform="matrix(0.933642 -0.358207 0.837824 0.54594 61.7305 18.8924)"/>
</clipPath>
<clipPath id="clip42_785_2001">
<rect width="9.08593" height="222.242" fill="white" transform="matrix(0.960768 -0.277352 0.755927 0.654656 79.6357 12.514)"/>
</clipPath>
<clipPath id="clip43_785_2001">
<rect width="9.51027" height="201.553" fill="white" transform="matrix(0.979219 -0.202804 0.63795 0.770078 99.0518 7.35861)"/>
</clipPath>
<clipPath id="clip44_785_2001">
<rect width="9.82346" height="184.108" fill="white" transform="matrix(0.991144 -0.132789 0.472345 0.881414 119.65 3.51453)"/>
</clipPath>
<clipPath id="clip45_785_2001">
<rect width="10.0153" height="172.24" fill="white" transform="matrix(0.99784 -0.0656845 0.254625 0.96704 141.075 1.04764)"/>
</clipPath>
<clipPath id="clip46_785_2001">
<rect width="10.0799" height="168" fill="white" transform="translate(162.959 9.91821e-05)"/>
</clipPath>
<clipPath id="clip47_785_2001">
<rect width="10.0153" height="172.24" fill="white" transform="matrix(0.99784 0.0656848 -0.254626 0.96704 184.932 0.389854)"/>
</clipPath>
</defs>
</svg>
