<svg width="24" height="24" viewBox="0 0 24 24" fill="none" xmlns="http://www.w3.org/2000/svg">
<path d="M17.6246 6.75C17.4408 9.22828 15.5621 11.25 13.4995 11.25C11.437 11.25 9.55502 9.22875 9.37455 6.75C9.18705 4.17188 11.0152 2.25 13.4995 2.25C15.9839 2.25 17.8121 4.21875 17.6246 6.75Z" stroke="#321B48" stroke-linecap="round" stroke-linejoin="round"/>
<path d="M13.4995 14.25C9.42141 14.25 5.28235 16.5 4.51641 20.7469C4.42266 21.2588 4.71376 21.75 5.25001 21.75H21.7495C22.2858 21.75 22.5755 21.2588 22.4831 20.7469C21.7167 16.5 17.5777 14.25 13.4995 14.25Z" stroke="#321B48" stroke-miterlimit="10"/>
<path d="M4.125 8.25V13.5M6.75 10.875H1.5" stroke="#321B48" stroke-linecap="round" stroke-linejoin="round"/>
</svg>
