<svg width="24" height="24" viewBox="0 0 24 24" fill="none" xmlns="http://www.w3.org/2000/svg">
<g clip-path="url(#clip0_772_1323)">
<path d="M23.4712 19.9286H22.2976V18.2379V10.5314H23.4712C23.976 10.5314 24.1936 9.88668 23.7901 9.58131L12.3189 0.901958C12.1302 0.759243 11.8697 0.759243 11.681 0.901958L0.209903 9.58123C-0.193896 9.88668 0.0244214 10.5313 0.528809 10.5313H1.70248V18.2378V19.9286H0.528809C0.236892 19.9286 0.000235145 20.1651 0.000235145 20.4571V22.6764C0.000235145 22.9684 0.236892 23.205 0.528809 23.205H23.4711C23.7631 23.205 23.9997 22.9684 23.9997 22.6764V20.4571C23.9998 20.1652 23.7631 19.9286 23.4712 19.9286ZM12 1.98634L21.8965 9.47423C21.2958 9.47423 3.82591 9.47423 2.10348 9.47423L12 1.98634ZM21.2404 18.7665V19.9286H2.75955V18.7665C3.61528 18.7665 20.4929 18.7665 21.2404 18.7665ZM2.75955 17.7093V10.5314H5.10674V17.7093H2.75955ZM6.16397 17.7093V10.5314H9.76917V17.7093H6.16397ZM10.8263 17.7093V10.5314H13.1735V17.7093H10.8263ZM14.2307 17.7093V10.5314H17.8359V17.7093H14.2307ZM18.8931 17.7093V10.5314H21.2404V17.7093H18.8931ZM1.05738 22.1479V20.9858C1.89766 20.9858 22.2254 20.9858 22.9425 20.9858V22.1479H1.05738Z" fill="#321B48"/>
<path d="M11.9999 4.88263C11.1061 4.88263 10.3789 5.60974 10.3789 6.50359C10.3789 7.39736 11.1061 8.12455 11.9999 8.12455C12.8937 8.12455 13.6208 7.39744 13.6208 6.50359C13.6208 5.60974 12.8937 4.88263 11.9999 4.88263ZM11.9999 7.0674C11.689 7.0674 11.4361 6.81449 11.4361 6.50359C11.4361 6.19261 11.689 5.93978 11.9999 5.93978C12.3108 5.93978 12.5637 6.19269 12.5637 6.50359C12.5637 6.81441 12.3108 7.0674 11.9999 7.0674Z" fill="#321B48"/>
</g>
<defs>
<clipPath id="clip0_772_1323">
<rect width="24" height="24" fill="white"/>
</clipPath>
</defs>
</svg>
